<svg version="1.1" viewBox="0.0 0.0 270.0 400.0" fill="none" stroke="none" stroke-linecap="square" stroke-miterlimit="10" xmlns:xlink="http://www.w3.org/1999/xlink" xmlns="http://www.w3.org/2000/svg"><clipPath id="p.0"><path d="m0 0l270.0 0l0 400.0l-270.0 0l0 -400.0z" clip-rule="nonzero"/></clipPath><g clip-path="url(#p.0)"><path fill="#666666" d="m0 0l270.0 0l0 400.0l-270.0 0z" fill-rule="evenodd"/><path fill="#000000" fill-opacity="0.0" d="m0.85301834 0.060367454l269.98425 0l0 199.93701l-269.98425 0z" fill-rule="evenodd"/><path fill="#93c47d" d="m17.103018 88.43474l-6.296874 -3.5l0 -1.859375l6.296874 -3.515625l0 1.953125l-4.765624 2.484375l4.765624 2.484375l0 1.953125zm2.7890625 0.265625l0 -12.8125l2.296875 0l0 4.609375q0.28125 -0.484375 1.078125 -0.78125q0.8125 -0.296875 1.9375 -0.296875q1.125 0 1.875 0.703125q0.765625 0.6875 0.765625 1.859375l0 6.71875l-2.3125 0l0 -6.390625q0 -1.171875 -1.546875 -1.171875q-0.6875 0 -1.25 0.359375q-0.546875 0.34375 -0.546875 0.953125l0 6.25l-2.296875 0zm14.860094 0.09375q-2.078125 0 -2.984377 -0.625q-0.890625 -0.625 -0.890625 -2.359375l0 -4.734375l-1.203125 0l0 -1.46875l1.265625 0l0.21875 -2.90625l2.015627 0l0 2.90625l2.15625 0l0 1.46875l-2.15625 0l0 4.578125q0 0.84375 0.40625 1.140625q0.40625 0.296875 1.546875 0.296875l0.265625 0l-0.078125 1.703125l-0.5625 0zm2.6131744 -0.09375l0 -9.09375l2.296875 0l0 0.8125q0.46875 -0.484375 1.21875 -0.734375q0.765625 -0.265625 1.46875 -0.265625q1.8125 0 2.484375 1.125q1.125 -1.125 3.03125 -1.125q1.296875 0 2.078125 0.703125q0.796875 0.703125 0.796875 1.859375l0 6.71875l-2.296875 0l0 -6.453125q0 -0.65625 -0.34375 -0.890625q-0.34375 -0.25 -1.0 -0.25q-0.640625 0 -1.234375 0.34375q-0.59375 0.34375 -0.640625 0.90625l0 6.34375l-2.3125 0l0 -6.453125q0 -0.65625 -0.359375 -0.890625q-0.359375 -0.25 -1.03125 -0.25q-0.65625 0 -1.265625 0.359375q-0.59375 0.359375 -0.59375 0.984375l0 6.25l-2.296875 0zm19.118881 0.09375q-1.5625 0 -2.3125 -0.703125q-0.75 -0.703125 -0.75 -2.375l0 -9.828125l2.296875 0l0 9.796875q0 0.75 0.359375 1.078125q0.359375 0.328125 1.265625 0.328125l0.28125 0l-0.171875 1.703125l-0.96875 0zm2.818512 -0.359375l0 -1.9375l4.765625 -2.5l-4.765625 -2.46875l0 -1.96875l6.296875 3.515625l0 1.84375l-6.296875 3.515625z" fill-rule="nonzero"/><path fill="#e06666" d="m65.10302 109.43474l-6.296875 -3.5l0 -1.859375l6.296875 -3.515625l0 1.953125l-4.765625 2.484375l4.765625 2.484375l0 1.953125zm8.2734375 -6.140625q0 -1.265625 -1.5625 -1.265625q-0.765625 0 -1.640625 0.421875l0 5.421875q0.53125 0.40625 1.40625 0.40625q1.796875 0 1.796875 -1.3125l0 -3.671875zm2.296875 3.625q0 1.328125 -0.984375 2.15625q-0.984375 0.8125 -2.4375 0.8125q-1.453125 0 -2.5625 -0.734375l-0.234375 0.546875l-1.578125 0l0 -12.828125l2.296875 0l0 4.03125q0.90625 -0.484375 1.84375 -0.484375q2.296875 0 3.125 1.1875q0.53125 0.734375 0.53125 1.71875l0 3.59375zm6.032089 2.96875q-3.9375 0 -3.9375 -2.9375l0 -3.578125q0 -1.390625 1.03125 -2.171875q1.046875 -0.78125 2.90625 -0.78125q1.875 0 2.90625 0.78125q1.046875 0.78125 1.046875 2.171875l0 3.578125q0 2.1875 -2.078125 2.734375q-0.78125 0.203125 -1.875 0.203125zm0 -1.59375q1.65625 0 1.65625 -1.234375l0 -3.796875q0 -0.65625 -0.421875 -0.9375q-0.421875 -0.296875 -1.234375 -0.296875q-1.640625 0 -1.640625 1.234375l0 3.796875q0 0.65625 0.40625 0.953125q0.421875 0.28125 1.234375 0.28125zm8.343353 -1.296875q0 0.671875 0.390625 0.984375q0.40625 0.296875 1.28125 0.296875q0.890625 0 1.5 -0.359375l0 -5.578125q-0.65625 -0.3125 -1.484375 -0.3125q-0.828125 0 -1.265625 0.296875q-0.421875 0.28125 -0.421875 0.953125l0 3.71875zm1.3125 2.890625q-1.8125 0 -2.71875 -0.765625q-0.890625 -0.765625 -0.890625 -2.15625l0 -3.640625q0 -1.328125 0.9375 -2.109375q0.9375 -0.796875 2.84375 -0.796875q0.8125 0 1.6875 0.328125l0 -3.875l2.296875 0l0 12.828125l-1.546875 0l-0.25 -0.53125q-1.046875 0.71875 -2.359375 0.71875zm6.7300262 3.921875l-0.171875 -1.90625q1.21875 -0.234375 1.765625 -0.9375q0.5625 -0.6875 0.859375 -1.5625l-3.421875 -8.796875l2.21875 0l2.359375 6.109375l1.890625 -6.109375l2.28125 0l-2.765625 7.90625q-0.703125 2.046875 -1.296875 2.9375q-0.578125 0.890625 -1.078125 1.296875q-1.0625 0.859375 -2.640625 1.0625zm9.194519 -4.375l0 -1.9375l4.765625 -2.5l-4.765625 -2.46875l0 -1.96875l6.296875 3.515625l0 1.84375l-6.296875 3.515625z" fill-rule="nonzero"/><path fill="#ffd966" d="m113.10302 130.43474l-6.296875 -3.5l0 -1.859375l6.296875 -3.515625l0 1.953125l-4.765625 2.484375l4.765625 2.484375l0 1.953125zm4.7578125 -2.4375q0 0.671875 0.390625 0.984375q0.40625 0.296875 1.28125 0.296875q0.890625 0 1.5 -0.359375l0 -5.578125q-0.65625 -0.3125 -1.484375 -0.3125q-0.828125 0 -1.265625 0.296875q-0.421875 0.28125 -0.421875 0.953125l0 3.71875zm1.3125 2.890625q-1.8125 0 -2.71875 -0.765625q-0.890625 -0.765625 -0.890625 -2.15625l0 -3.640625q0 -1.328125 0.9375 -2.109375q0.9375 -0.796875 2.84375 -0.796875q0.8125 0 1.6875 0.328125l0 -3.875l2.296875 0l0 12.828125l-1.546875 0l-0.25 -0.53125q-1.046875 0.71875 -2.359375 0.71875zm6.8862762 -10.5625l0 -2.046875l2.2968674 0l0 2.046875l-2.2968674 0zm0 10.375l0 -9.09375l2.2968674 0l0 9.09375l-2.2968674 0zm7.1690445 0l-3.234375 -9.09375l2.296875 0l2.171875 6.84375l2.125 -6.84375l2.171875 0l-3.078125 9.09375l-2.453125 0zm7.098114 -0.265625l0 -1.9375l4.765625 -2.5l-4.765625 -2.46875l0 -1.96875l6.296875 3.515625l0 1.84375l-6.296875 3.515625z" fill-rule="nonzero"/><path fill="#efefef" d="m149.31895 130.70036l0 -12.484375l2.515625 0l0 5.3125l5.484375 0l0 -5.3125l2.53125 0l0 12.484375l-2.53125 0l0 -5.203125l-5.484375 0l0 5.203125l-2.515625 0zm15.475037 -5.515625l3.265625 0l0 -1.0625q0 -0.8125 -0.65625 -1.0q-0.34375 -0.109375 -1.046875 -0.09375q-0.703125 0 -1.140625 0.234375q-0.421875 0.234375 -0.421875 0.90625l0 1.015625zm0.0625 5.5625q-0.6875 -0.140625 -1.21875 -0.484375q-1.140625 -0.703125 -1.140625 -2.40625l0 -3.546875q0 -1.375 1.03125 -2.125q1.046875 -0.765625 2.84375 -0.765625q3.875 0 3.875 2.984375l0 2.1875l-5.453125 0l0 1.484375q0 0.75 0.375 0.984375q0.375 0.234375 1.265625 0.234375q0.890625 0 1.046875 -0.078125q0.375 -0.21875 0.484375 -0.515625q0.125 -0.296875 0.140625 -0.796875l2.125 0q-0.046875 2.109375 -1.484375 2.65625q-0.828125 0.328125 -2.03125 0.328125q-1.1875 0 -1.859375 -0.140625zm10.76857 0.046875q-1.5625 0 -2.3125 -0.703125q-0.75 -0.703125 -0.75 -2.375l0 -9.828125l2.296875 0l0 9.796875q0 0.75 0.359375 1.078125q0.359375 0.328125 1.265625 0.328125l0.28125 0l-0.171875 1.703125l-0.96875 0zm5.990387 0q-1.5625 0 -2.3125 -0.703125q-0.75 -0.703125 -0.75 -2.375l0 -9.828125l2.296875 0l0 9.796875q0 0.75 0.359375 1.078125q0.359375 0.328125 1.265625 0.328125l0.28125 0l-0.171875 1.703125l-0.96875 0zm6.521637 0.09375q-3.9375 0 -3.9375 -2.9375l0 -3.578125q0 -1.390625 1.03125 -2.171875q1.046875 -0.78125 2.90625 -0.78125q1.875 0 2.90625 0.78125q1.046875 0.78125 1.046875 2.171875l0 3.578125q0 2.1875 -2.078125 2.734375q-0.78125 0.203125 -1.875 0.203125zm0 -1.59375q1.65625 0 1.65625 -1.234375l0 -3.796875q0 -0.65625 -0.421875 -0.9375q-0.421875 -0.296875 -1.234375 -0.296875q-1.640625 0 -1.640625 1.234375l0 3.796875q0 0.65625 0.40625 0.953125q0.421875 0.28125 1.234375 0.28125zm7.3746033 -2.0625q-0.703125 -8.03125 -0.703125 -9.03125l2.1875 0q0 0.90625 -0.84375 9.03125l-0.640625 0zm-0.75 3.46875l0 -2.078125l2.109375 0l0 2.078125l-2.109375 0z" fill-rule="nonzero"/><path fill="#ffd966" d="m205.86942 130.43474l-6.296875 -3.5l0 -1.859375l6.296875 -3.515625l0 1.953125l-4.765625 2.484375l4.765625 2.484375l0 1.953125zm2.3046875 0.265625l4.828125 -12.828125l2.046875 0l-4.8125 12.828125l-2.0625 0zm11.1171875 -2.703125q0 0.671875 0.390625 0.984375q0.40625 0.296875 1.28125 0.296875q0.890625 0 1.5 -0.359375l0 -5.578125q-0.65625 -0.3125 -1.484375 -0.3125q-0.828125 0 -1.265625 0.296875q-0.421875 0.28125 -0.421875 0.953125l0 3.71875zm1.3125 2.890625q-1.8125 0 -2.71875 -0.765625q-0.890625 -0.765625 -0.890625 -2.15625l0 -3.640625q0 -1.328125 0.9375 -2.109375q0.9375 -0.796875 2.84375 -0.796875q0.8125 0 1.6875 0.328125l0 -3.875l2.296875 0l0 12.828125l-1.546875 0l-0.25 -0.53125q-1.046875 0.71875 -2.359375 0.71875zm6.8862762 -10.5625l0 -2.046875l2.296875 0l0 2.046875l-2.296875 0zm0 10.375l0 -9.09375l2.296875 0l0 9.09375l-2.296875 0zm7.169052 0l-3.234375 -9.09375l2.296875 0l2.171875 6.84375l2.125 -6.84375l2.171875 0l-3.078125 9.09375l-2.453125 0zm7.098114 -0.265625l0 -1.9375l4.765625 -2.5l-4.765625 -2.46875l0 -1.96875l6.296875 3.515625l0 1.84375l-6.296875 3.515625z" fill-rule="nonzero"/><path fill="#e06666" d="m65.10302 151.43474l-6.296875 -3.5l0 -1.859375l6.296875 -3.515625l0 1.953125l-4.765625 2.484375l4.765625 2.484375l0 1.953125zm2.3046875 0.265625l4.828125 -12.828125l2.046875 0l-4.8125 12.828125l-2.0625 0zm14.6328125 -6.40625q0 -1.265625 -1.5625 -1.265625q-0.765625 0 -1.640625 0.421875l0 5.421875q0.53125 0.40625 1.40625 0.40625q1.796875 0 1.796875 -1.3125l0 -3.671875zm2.296875 3.625q0 1.328125 -0.984375 2.15625q-0.984375 0.8125 -2.4375 0.8125q-1.453125 0 -2.5625 -0.734375l-0.234375 0.546875l-1.578125 0l0 -12.828125l2.296875 0l0 4.03125q0.90625 -0.484375 1.84375 -0.484375q2.296875 0 3.125 1.1875q0.53125 0.734375 0.53125 1.71875l0 3.59375zm6.032089 2.96875q-3.9375 0 -3.9375 -2.9375l0 -3.578125q0 -1.390625 1.03125 -2.171875q1.046875 -0.78125 2.90625 -0.78125q1.875 0 2.90625 0.78125q1.046875 0.78125 1.046875 2.171875l0 3.578125q0 2.1875 -2.078125 2.734375q-0.78125 0.203125 -1.875 0.203125zm0 -1.59375q1.65625 0 1.65625 -1.234375l0 -3.796875q0 -0.65625 -0.421875 -0.9375q-0.421875 -0.296875 -1.234375 -0.296875q-1.640625 0 -1.640625 1.234375l0 3.796875q0 0.65625 0.40625 0.953125q0.421875 0.28125 1.234375 0.28125zm8.343353 -1.296875q0 0.671875 0.390625 0.984375q0.40625 0.296875 1.28125 0.296875q0.890625 0 1.5 -0.359375l0 -5.578125q-0.65625 -0.3125 -1.484375 -0.3125q-0.828125 0 -1.265625 0.296875q-0.421875 0.28125 -0.421875 0.953125l0 3.71875zm1.3125 2.890625q-1.8125 0 -2.71875 -0.765625q-0.890625 -0.765625 -0.890625 -2.15625l0 -3.640625q0 -1.328125 0.9375 -2.109375q0.9375 -0.796875 2.84375 -0.796875q0.8125 0 1.6875 0.328125l0 -3.875l2.296875 0l0 12.828125l-1.546875 0l-0.25 -0.53125q-1.046875 0.71875 -2.359375 0.71875zm6.7300262 3.921875l-0.171875 -1.90625q1.21875 -0.234375 1.765625 -0.9375q0.5625 -0.6875 0.859375 -1.5625l-3.421875 -8.796875l2.21875 0l2.359375 6.109375l1.890625 -6.109375l2.28125 0l-2.765625 7.90625q-0.703125 2.046875 -1.296875 2.9375q-0.578125 0.890625 -1.078125 1.296875q-1.0625 0.859375 -2.640625 1.0625zm9.194519 -4.375l0 -1.9375l4.765625 -2.5l-4.765625 -2.46875l0 -1.96875l6.296875 3.515625l0 1.84375l-6.296875 3.515625z" fill-rule="nonzero"/><path fill="#93c47d" d="m17.103018 172.43474l-6.296874 -3.5l0 -1.859375l6.296874 -3.515625l0 1.953125l-4.765624 2.484375l4.765624 2.484375l0 1.953125zm2.3046875 0.265625l4.828125 -12.828125l2.046875 0l-4.8125 12.828125l-2.0625 0zm9.1484375 0l0 -12.8125l2.296875 0l0 4.609375q0.28125 -0.484375 1.078125 -0.78125q0.8125019 -0.296875 1.9375019 -0.296875q1.125 0 1.875 0.703125q0.765625 0.6875 0.765625 1.859375l0 6.71875l-2.3125 0l0 -6.390625q0 -1.171875 -1.546875 -1.171875q-0.6875019 0 -1.2500019 0.359375q-0.546875 0.34375 -0.546875 0.953125l0 6.25l-2.296875 0zm14.860094 0.09375q-2.078125 0 -2.984375 -0.625q-0.890625 -0.625 -0.890625 -2.359375l0 -4.734375l-1.203125 0l0 -1.46875l1.265625 0l0.21875 -2.90625l2.015625 0l0 2.90625l2.15625 0l0 1.46875l-2.15625 0l0 4.578125q0 0.84375 0.40625 1.140625q0.40625 0.296875 1.546875 0.296875l0.265625 0l-0.078125 1.703125l-0.5625 0zm2.6131744 -0.09375l0 -9.09375l2.296875 0l0 0.8125q0.46875 -0.484375 1.21875 -0.734375q0.765625 -0.265625 1.46875 -0.265625q1.8125 0 2.484375 1.125q1.125 -1.125 3.03125 -1.125q1.296875 0 2.078125 0.703125q0.796875 0.703125 0.796875 1.859375l0 6.71875l-2.296875 0l0 -6.453125q0 -0.65625 -0.34375 -0.890625q-0.34375 -0.25 -1.0 -0.25q-0.640625 0 -1.234375 0.34375q-0.59375 0.34375 -0.640625 0.90625l0 6.34375l-2.3125 0l0 -6.453125q0 -0.65625 -0.359375 -0.890625q-0.359375 -0.25 -1.03125 -0.25q-0.65625 0 -1.265625 0.359375q-0.59375 0.359375 -0.59375 0.984375l0 6.25l-2.296875 0zm19.118881 0.09375q-1.5625 0 -2.3125 -0.703125q-0.75 -0.703125 -0.75 -2.375l0 -9.828125l2.296875 0l0 9.796875q0 0.75 0.359375 1.078125q0.359375 0.328125 1.265625 0.328125l0.28125 0l-0.171875 1.703125l-0.96875 0zm2.818512 -0.359375l0 -1.9375l4.765625 -2.5l-4.765625 -2.46875l0 -1.96875l6.296875 3.515625l0 1.84375l-6.296875 3.515625z" fill-rule="nonzero"/><path fill="#000000" fill-opacity="0.0" d="m0.85301834 200.0l269.98425 0l0 199.93701l-269.98425 0z" fill-rule="evenodd"/><path fill="#e06666" d="m16.181143 218.43813q0 -1.171875 -1.437499 -1.171875q-0.703125 0 -1.515625 0.390625l0 5.015625q0.484375 0.375 1.296875 0.375q1.656249 0 1.656249 -1.21875l0 -3.390625zm2.125 3.34375q0 1.234375 -0.90625 2.0q-0.90625 0.765625 -2.249999 0.765625q-1.34375 0 -2.375 -0.703125l-0.203125 0.515625l-1.46875 0l0 -11.84375l2.125 0l0 3.71875q0.84375 -0.453125 1.703125 -0.453125q2.124999 0 2.890624 1.09375q0.484375 0.6875 0.484375 1.59375l0 3.3125zm5.578125 2.765625q-3.640625 0 -3.640625 -2.734375l0 -3.296875q0 -1.296875 0.953125 -2.015625q0.96875 -0.71875 2.6875 -0.71875q1.71875 0 2.671875 0.734375q0.96875 0.71875 0.96875 2.0l0 3.296875q0 2.03125 -1.921875 2.53125q-0.71875 0.203125 -1.71875 0.203125zm0 -1.484375q1.515625 0 1.515625 -1.15625l0 -3.484375q0 -0.625 -0.390625 -0.890625q-0.375 -0.265625 -1.125 -0.265625q-1.515625 0 -1.515625 1.15625l0 3.484375q0 0.625 0.375 0.890625q0.390625 0.265625 1.140625 0.265625zm7.703125 -1.203125q0 0.625 0.359375 0.90625q0.3750019 0.28125 1.1875019 0.28125q0.8125 0 1.375 -0.34375l0 -5.140625q-0.609375 -0.296875 -1.375 -0.296875q-0.765625 0 -1.1562519 0.28125q-0.390625 0.265625 -0.390625 0.875l0 3.4375zm1.2187519 2.6875q-1.6718769 0 -2.515627 -0.703125q-0.828125 -0.71875 -0.828125 -2.015625l0 -3.359375q0 -1.21875 0.859375 -1.953125q0.875 -0.734375 2.625002 -0.734375q0.75 0 1.5625 0.296875l0 -3.5625l2.125 0l0 11.84375l-1.4375 0l-0.21875 -0.5q-0.96875 0.6875 -2.171875 0.6875zm6.203125 3.609375l-0.15625 -1.765625q1.125 -0.21875 1.625 -0.859375q0.515625 -0.625 0.796875 -1.453125l-3.15625 -8.109375l2.046875 0l2.171875 5.625l1.75 -5.625l2.109375 0l-2.546875 7.296875q-0.65625 1.890625 -1.203125 2.703125q-0.53125 0.828125 -1.0 1.203125q-0.984375 0.796875 -2.4375 0.984375z" fill-rule="nonzero"/><path fill="#cccccc" d="m56.954582 225.36q-1.109375 0 -1.8125 -0.171875q-0.6875 -0.171875 -1.109375 -0.625q-0.40625 -0.4375 -0.5625 -1.0625q-0.15625 -0.640625 -0.15625 -1.65625l0 -0.6875q0 -0.9375 -0.328125 -1.1875q-0.3125 -0.265625 -1.171875 -0.265625l0 -1.859375q0.875 0 1.1875 -0.3125q0.3125 -0.328125 0.3125 -1.265625l0 -0.8125q0 -1.140625 0.140625 -1.609375q0.140625 -0.46875 0.265625 -0.703125q0.140625 -0.234375 0.484375 -0.484375q0.609375 -0.453125 2.75 -0.453125q0 0.671875 0 1.015625l0 0.34375q-0.515625 0 -0.8125 0.046875q-0.28125 0.046875 -0.4375 0.21875q-0.140625 0.171875 -0.1875 0.40625q-0.03125 0.21875 -0.03125 0.671875l0 1.015625q0 2.390625 -1.25 2.796875q0.6875 0.234375 0.96875 0.90625q0.296875 0.65625 0.296875 1.84375l0 0.921875q0 0.5 0.03125 0.765625q0.046875 0.25 0.1875 0.46875q0.140625 0.21875 0.4375 0.296875q0.296875 0.078125 0.796875 0.078125l0 1.359375z" fill-rule="nonzero"/><path fill="#6d9eeb" d="m64.181145 237.43813q0 -1.171875 -1.4375 -1.171875q-0.703125 0 -1.515625 0.390625l0 5.015625q0.484375 0.375 1.296875 0.375q1.65625 0 1.65625 -1.21875l0 -3.390625zm2.125 3.34375q0 1.234375 -0.90625 2.0q-0.90625 0.765625 -2.25 0.765625q-1.34375 0 -2.375 -0.703125l-0.203125 0.515625l-1.46875 0l0 -11.84375l2.125 0l0 3.71875q0.84375 -0.453125 1.703125 -0.453125q2.125 0 2.890625 1.09375q0.484375 0.6875 0.484375 1.59375l0 3.3125zm3.96875 0.28125q0 1.0 1.09375 1.0q0.421875 0 0.890625 -0.21875q0.484375 -0.234375 0.765625 -0.640625l0 -2.09375q-0.375 0.296875 -1.328125 0.65625q-0.9375 0.34375 -1.1875 0.640625q-0.234375 0.28125 -0.234375 0.65625zm2.921875 1.359375q-0.375 0.484375 -1.0625 0.8125q-0.671875 0.3125 -1.65625 0.3125q-0.96875 0 -1.65625 -0.640625q-0.671875 -0.640625 -0.671875 -1.625q0 -0.984375 0.609375 -1.578125q0.625 -0.59375 2.359375 -1.140625q1.046875 -0.328125 1.46875 -0.59375q0.4375 -0.265625 0.4375 -0.734375q0 -0.96875 -1.328125 -0.96875q-0.734375 0 -1.015625 0.296875q-0.28125 0.28125 -0.28125 0.8125l0 0.328125l-2.0 0l0 -0.25q0 -1.25 0.828125 -1.953125q0.84375 -0.71875 2.578125 -0.71875q1.734375 0 2.515625 0.734375q0.796875 0.734375 0.796875 2.109375l0 3.328125q0 0.5625 0.140625 0.75q0.140625 0.171875 0.53125 0.171875l-0.078125 1.546875l-0.453125 0q-0.859375 0 -1.34375 -0.234375q-0.484375 -0.25 -0.71875 -0.765625zm7.8125 1.125q-2.4375 0 -3.140625 -1.109375q-0.453125 -0.671875 -0.453125 -1.640625l0 -3.359375q0 -1.25 0.90625 -1.953125q0.921875 -0.703125 2.609375 -0.703125q1.6875 0 2.546875 0.671875q0.859375 0.671875 0.859375 2.4375l-2.0 0.15625q0 -1.125 -0.28125 -1.453125q-0.15625 -0.203125 -0.40625 -0.265625q-0.234375 -0.0625 -0.8125 -0.0625q-1.296875 0 -1.296875 1.1875l0 3.390625q0 0.65625 0.34375 0.9375q0.34375 0.265625 1.0 0.265625q0.671875 0 0.9375 -0.125q0.28125 -0.125 0.390625 -0.453125q0.125 -0.34375 0.125 -1.078125l1.984375 0q-0.015625 0.921875 -0.171875 1.5q-0.15625 0.5625 -0.546875 0.953125q-0.703125 0.6875 -2.59375 0.703125zm5.3515625 -0.1875l0 -11.84375l2.125 0l0 7.140625l3.328125 -3.6875l2.421875 0l-3.15625 3.609375l3.296875 4.78125l-2.328125 0l-2.625 -3.890625l-0.9375 0.96875l0 2.921875l-2.125 0zm12.6953125 -1.671875q1.046875 0 1.5625 -0.375l0 -4.453125q0 -0.1875 -0.453125 -0.390625q-0.453125 -0.203125 -1.15625 -0.203125q-1.453125 0 -1.453125 1.171875l0 3.140625q0 1.109375 1.5 1.109375zm-0.109375 5.125q-1.84375 0 -2.765625 -0.4375l0.4375 -1.453125q1.171875 0.328125 2.171875 0.328125q1.0 0 1.40625 -0.390625q0.421875 -0.390625 0.421875 -1.265625l0 -0.921875q-0.734375 0.4375 -2.09375 0.4375q-1.34375 0 -2.21875 -0.6875q-0.875 -0.703125 -0.875 -1.921875l0 -3.015625q0 -1.125 0.734375 -1.90625q0.75 -0.796875 2.46875 -0.796875q0.65625 0 1.296875 0.234375q0.640625 0.21875 1.046875 0.546875l0.1875 -0.609375l1.578125 0l0 8.5q0 3.359375 -3.796875 3.359375zm6.2265625 -3.453125l0 -8.390625l2.125 0l0 1.0q0.1875 -0.359375 0.78125 -0.640625q1.03125 -0.5 1.984375 -0.5q0.109375 0 0.203125 0.015625l-0.046875 1.796875q-1.40625 0.078125 -2.328125 0.53125q-0.515625 0.25 -0.59375 0.5625l0 5.625l-2.125 0zm9.8515625 0.1875q-3.640625 0 -3.640625 -2.734375l0 -3.296875q0 -1.296875 0.953125 -2.015625q0.96875 -0.71875 2.6875 -0.71875q1.71875 0 2.671875 0.734375q0.96875 0.71875 0.96875 2.0l0 3.296875q0 2.03125 -1.921875 2.53125q-0.71875 0.203125 -1.71875 0.203125zm0 -1.484375q1.515625 0 1.515625 -1.15625l0 -3.484375q0 -0.625 -0.390625 -0.890625q-0.375 -0.265625 -1.125 -0.265625q-1.515625 0 -1.515625 1.15625l0 3.484375q0 0.625 0.375 0.890625q0.390625 0.265625 1.140625 0.265625zm11.078125 0.375q-0.25 0.515625 -0.96875 0.8125q-0.71875 0.296875 -1.59375 0.296875q-1.265625 0 -2.0 -0.703125q-0.71875 -0.703125 -0.71875 -1.765625l0 -6.109375l2.125 0l0 5.765625q0 0.609375 0.421875 0.90625q0.4375 0.296875 1.046875 0.296875q0.625 0 1.125 -0.328125q0.5 -0.34375 0.5 -0.984375l0 -5.65625l2.1249924 0l0 8.390625l-1.9999924 0l-0.0625 -0.921875zm9.757805 -4.984375q0 -1.078125 -1.46875 -1.078125q-0.640625 0 -1.140625 0.328125q-0.5 0.328125 -0.5 0.90625l0 5.75l-2.125 0l0 -8.390625l2.125 0l0 0.734375q1.078125 -0.9375 2.5 -0.9375q1.4375 0 2.078125 0.734375q0.65625 0.734375 0.65625 1.84375l0 6.015625l-2.125 0l0 -5.90625zm6.40625 3.40625q0 0.625 0.359375 0.90625q0.375 0.28125 1.1875 0.28125q0.8125 0 1.375 -0.34375l0 -5.140625q-0.609375 -0.296875 -1.375 -0.296875q-0.765625 0 -1.15625 0.28125q-0.390625 0.265625 -0.390625 0.875l0 3.4375zm1.21875 2.6875q-1.671875 0 -2.515625 -0.703125q-0.828125 -0.71875 -0.828125 -2.015625l0 -3.359375q0 -1.21875 0.859375 -1.953125q0.875 -0.734375 2.625 -0.734375q0.75 0 1.5625 0.296875l0 -3.5625l2.125 0l0 11.84375l-1.4375 0l-0.21875 -0.5q-0.96875 0.6875 -2.171875 0.6875zm6.078125 -4.046875l0 -1.15625l5.5 0l0 1.15625l-5.5 0zm11.09375 4.046875q-2.4375 0 -3.140625 -1.109375q-0.453125 -0.671875 -0.453125 -1.640625l0 -3.359375q0 -1.25 0.90625 -1.953125q0.921875 -0.703125 2.609375 -0.703125q1.6875 0 2.546875 0.671875q0.859375 0.671875 0.859375 2.4375l-2.0 0.15625q0 -1.125 -0.28125 -1.453125q-0.15625 -0.203125 -0.40625 -0.265625q-0.234375 -0.0625 -0.8125 -0.0625q-1.296875 0 -1.296875 1.1875l0 3.390625q0 0.65625 0.34375 0.9375q0.34375 0.265625 1.0 0.265625q0.671875 0 0.9375 -0.125q0.28125 -0.125 0.390625 -0.453125q0.125 -0.34375 0.125 -1.078125l1.984375 0q-0.015625 0.921875 -0.171875 1.5q-0.15625 0.5625 -0.546875 0.953125q-0.703125 0.6875 -2.59375 0.703125zm8.6953125 0q-3.640625 0 -3.640625 -2.734375l0 -3.296875q0 -1.296875 0.953125 -2.015625q0.96875 -0.71875 2.6875 -0.71875q1.71875 0 2.671875 0.734375q0.96875 0.71875 0.96875 2.0l0 3.296875q0 2.03125 -1.921875 2.53125q-0.71875 0.203125 -1.71875 0.203125zm0 -1.484375q1.515625 0 1.515625 -1.15625l0 -3.484375q0 -0.625 -0.390625 -0.890625q-0.375 -0.265625 -1.125 -0.265625q-1.515625 0 -1.515625 1.15625l0 3.484375q0 0.625 0.375 0.890625q0.390625 0.265625 1.140625 0.265625zm8.734375 1.390625q-1.453125 0 -2.15625 -0.65625q-0.6875 -0.65625 -0.6875 -2.203125l0 -9.078125l2.125 0l0 9.046875q0 0.703125 0.328125 1.015625q0.328125 0.296875 1.171875 0.296875l0.265625 0l-0.15625 1.578125l-0.890625 0zm6.015625 0.09375q-3.640625 0 -3.640625 -2.734375l0 -3.296875q0 -1.296875 0.953125 -2.015625q0.96875 -0.71875 2.6875 -0.71875q1.71875 0 2.671875 0.734375q0.96875 0.71875 0.96875 2.0l0 3.296875q0 2.03125 -1.921875 2.53125q-0.71875 0.203125 -1.71875 0.203125zm0 -1.484375q1.515625 0 1.515625 -1.15625l0 -3.484375q0 -0.625 -0.390625 -0.890625q-0.375 -0.265625 -1.125 -0.265625q-1.515625 0 -1.515625 1.15625l0 3.484375q0 0.625 0.375 0.890625q0.390625 0.265625 1.140625 0.265625zm5.859375 1.296875l0 -8.390625l2.125 0l0 1.0q0.1875 -0.359375 0.78125 -0.640625q1.03125 -0.5 1.984375 -0.5q0.109375 0 0.203125 0.015625l-0.046875 1.796875q-1.40625 0.078125 -2.328125 0.53125q-0.515625 0.25 -0.59375 0.5625l0 5.625l-2.125 0zm7.1328125 -1.546875l0 -2.21875l2.328125 0l0 2.21875l-2.328125 0zm0 -5.125l0 -2.21875l2.328125 0l0 2.21875l-2.328125 0z" fill-rule="nonzero"/><path fill="#ffd966" d="m211.57176 237.43813q0 -1.171875 -1.4375 -1.171875q-0.703125 0 -1.515625 0.390625l0 5.015625q0.484375 0.375 1.296875 0.375q1.65625 0 1.65625 -1.21875l0 -3.390625zm2.125 3.34375q0 1.234375 -0.90625 2.0q-0.90625 0.765625 -2.25 0.765625q-1.34375 0 -2.375 -0.703125l-0.203125 0.515625l-1.46875 0l0 -11.84375l2.125 0l0 3.71875q0.84375 -0.453125 1.703125 -0.453125q2.125 0 2.890625 1.09375q0.484375 0.6875 0.484375 1.59375l0 3.3125zm5.09375 2.671875q-1.453125 0 -2.15625 -0.65625q-0.6875 -0.65625 -0.6875 -2.203125l0 -9.078125l2.125 0l0 9.046875q0 0.703125 0.328125 1.015625q0.328125 0.296875 1.171875 0.296875l0.265625 0l-0.15625 1.578125l-0.890625 0zm7.875 -1.015625q-0.25 0.515625 -0.96875 0.8125q-0.71875 0.296875 -1.59375 0.296875q-1.265625 0 -2.0 -0.703125q-0.71875 -0.703125 -0.71875 -1.765625l0 -6.109375l2.125 0l0 5.765625q0 0.609375 0.421875 0.90625q0.4375 0.296875 1.046875 0.296875q0.625 0 1.125 -0.328125q0.5 -0.34375 0.5 -0.984375l0 -5.65625l2.125 0l0 8.390625l-2.0 0l-0.0625 -0.921875zm6.3671875 -4.171875l3.015625 0l0 -0.984375q0 -0.75 -0.609375 -0.921875q-0.3125 -0.09375 -0.96875 -0.09375q-0.65625 0 -1.046875 0.21875q-0.390625 0.21875 -0.390625 0.84375l0 0.9375zm0.046875 5.140625q-0.625 -0.140625 -1.125 -0.453125q-1.046875 -0.640625 -1.046875 -2.21875l0 -3.28125q0 -1.265625 0.953125 -1.96875q0.96875 -0.703125 2.625 -0.703125q3.578125 0 3.578125 2.75l0 2.03125l-5.03125 0l0 1.375q0 0.6875 0.34375 0.90625q0.34375 0.21875 1.15625 0.21875q0.828125 0 0.984375 -0.078125q0.34375 -0.203125 0.4375 -0.46875q0.109375 -0.28125 0.125 -0.734375l1.96875 0q-0.046875 1.9375 -1.359375 2.453125q-0.78125 0.296875 -1.890625 0.296875q-1.09375 0.015625 -1.71875 -0.125z" fill-rule="nonzero"/><path fill="#d9d9d9" d="m241.75926 244.86l-0.84375 -0.359375q0.40625 -0.453125 0.765625 -1.203125q0.375 -0.765625 0.375 -1.484375l-1.28125 0l0 -2.15625l2.515625 0l0 1.734375q0 1.046875 -0.515625 2.03125q-0.515625 0.984375 -1.015625 1.4375zm-0.953125 -8.171875l0 -2.21875l2.328125 0l0 2.21875l-2.328125 0z" fill-rule="nonzero"/><path fill="#6d9eeb" d="m64.181145 256.4381q0 -1.1718597 -1.4375 -1.1718597q-0.703125 0 -1.515625 0.390625l0 5.0156097q0.484375 0.375 1.296875 0.375q1.65625 0 1.65625 -1.21875l0 -3.390625zm2.125 3.34375q0 1.234375 -0.90625 2.0q-0.90625 0.765625 -2.25 0.765625q-1.34375 0 -2.375 -0.703125l-0.203125 0.515625l-1.46875 0l0 -11.843735l2.125 0l0 3.71875q0.84375 -0.453125 1.703125 -0.453125q2.125 0 2.890625 1.09375q0.484375 0.6875 0.484375 1.5937347l0 3.3125zm5.578125 2.765625q-3.640625 0 -3.640625 -2.734375l0 -3.296875q0 -1.2968597 0.953125 -2.0156097q0.96875 -0.71875 2.6875 -0.71875q1.71875 0 2.671875 0.734375q0.96875 0.71875 0.96875 1.9999847l0 3.296875q0 2.03125 -1.921875 2.53125q-0.71875 0.203125 -1.71875 0.203125zm0 -1.484375q1.515625 0 1.515625 -1.15625l0 -3.484375q0 -0.62498474 -0.390625 -0.89060974q-0.375 -0.265625 -1.125 -0.265625q-1.515625 0 -1.515625 1.1562347l0 3.484375q0 0.625 0.375 0.890625q0.390625 0.265625 1.140625 0.265625zm5.859375 1.296875l0 -8.39061l2.125 0l0 1.0q0.1875 -0.359375 0.78125 -0.640625q1.03125 -0.5 1.984375 -0.5q0.109375 0 0.203125 0.015625l-0.046875 1.796875q-1.40625 0.078125 -2.328125 0.53123474q-0.515625 0.25 -0.59375 0.5625l0 5.625l-2.125 0zm8.3359375 -2.5q0 0.625 0.359375 0.90625q0.375 0.28125 1.1875 0.28125q0.8125 0 1.375 -0.34375l0 -5.1406097q-0.609375 -0.296875 -1.375 -0.296875q-0.765625 0 -1.15625 0.28125q-0.390625 0.265625 -0.390625 0.87498474l0 3.4375zm1.21875 2.6875q-1.671875 0 -2.515625 -0.703125q-0.828125 -0.71875 -0.828125 -2.015625l0 -3.359375q0 -1.2187347 0.859375 -1.9531097q0.875 -0.734375 2.625 -0.734375q0.75 0 1.5625 0.296875l0 -3.5625l2.125 0l0 11.843735l-1.4375 0l-0.21875 -0.5q-0.96875 0.6875 -2.171875 0.6875zm8.140625 -5.28125l3.015625 0l0 -0.984375q0 -0.74998474 -0.609375 -0.92185974q-0.3125 -0.09375 -0.96875 -0.09375q-0.65625 0 -1.046875 0.21875q-0.390625 0.21875 -0.390625 0.84373474l0 0.9375zm0.046875 5.140625q-0.625 -0.140625 -1.125 -0.453125q-1.046875 -0.640625 -1.046875 -2.21875l0 -3.28125q0 -1.2656097 0.953125 -1.9687347q0.96875 -0.703125 2.625 -0.703125q3.578125 0 3.578125 2.7499847l0 2.03125l-5.03125 0l0 1.375q0 0.6875 0.34375 0.90625q0.34375 0.21875 1.15625 0.21875q0.828125 0 0.984375 -0.078125q0.34375 -0.203125 0.4375 -0.46875q0.109375 -0.28125 0.125 -0.734375l1.96875 0q-0.046875 1.9375 -1.359375 2.453125q-0.78125 0.296875 -1.890625 0.296875q-1.09375 0.015625 -1.71875 -0.125zm7.0859375 -0.046875l0 -8.39061l2.125 0l0 1.0q0.1875 -0.359375 0.78125 -0.640625q1.03125 -0.5 1.984375 -0.5q0.109375 0 0.203125 0.015625l-0.046875 1.796875q-1.40625 0.078125 -2.328125 0.53123474q-0.515625 0.25 -0.59375 0.5625l0 5.625l-2.125 0zm7.1328125 -1.546875l0 -2.21875l2.328125 0l0 2.21875l-2.328125 0zm0 -5.1249847l0 -2.21875l2.328125 0l0 2.21875l-2.328125 0z" fill-rule="nonzero"/><path fill="#ffd966" d="m123.44677 260.8131q2.046875 0 2.046875 -1.78125q0 -0.84375 -0.21875 -1.234375q-0.203125 -0.390625 -0.75 -0.5625q-0.53125 -0.171875 -1.5625 -0.171875l0 -1.5624847q1.890625 0 2.25 -0.578125q0.21875 -0.359375 0.21875 -1.078125q0 -0.734375 -0.453125 -1.109375q-0.4375 -0.375 -1.5625 -0.375q-1.125 0 -1.5625 0.421875q-0.4375 0.421875 -0.4375 1.5l-2.09375 0q0.015625 -2.03125 1.09375 -2.84375q1.078125 -0.828125 2.984375 -0.828125q1.921875 0 3.0625 0.84375q1.140625 0.828125 1.140625 2.296875q0 1.1875 -0.453125 1.765625q-0.453125 0.56248474 -1.296875 0.74998474q1.84375 0.5 1.84375 2.765625q0 1.5625 -1.0 2.5625q-1.0 0.984375 -3.1875 0.984375q-2.171875 0 -3.1875 -0.921875q-1.0 -0.9375 -1.046875 -2.703125l2.09375 0q0.015625 1.0625 0.5 1.46875q0.484375 0.390625 1.578125 0.390625zm10.296867 0.25q1.5 0 1.5 -1.203125l0 -3.40625q0 -1.1874847 -1.421875 -1.1874847q-0.484375 0 -0.890625 0.15625q-0.40625 0.15625 -0.609375 0.359375l0 4.9062347q0.6875 0.375 1.421875 0.375zm-3.546875 4.5l0 -11.593735l1.484375 0l0.21875 0.546875q0.984375 -0.734375 2.375 -0.734375q1.40625 0 2.25 0.75q0.84375 0.734375 0.84375 1.9531097l0 3.328125q0 1.125 -0.859375 1.9375q-0.859375 0.796875 -2.578125 0.796875q-0.90625 0 -1.609375 -0.328125l0 3.34375l-2.125 0zm8.421875 -3.203125l2.890625 -4.21875l-2.875 -4.1718597l2.21875 0l1.734375 2.6249847l1.75 -2.6249847l2.15625 0l-2.8125 4.2031097l2.828125 4.1875l-2.109375 0l-1.765625 -2.640625l-1.75 2.640625l-2.265625 0zm16.328125 0.1875q-1.984375 0 -3.28125 -0.671875l0.4375 -1.4375q1.46875 0.625 2.765625 0.625q0.984375 0 1.125 -0.890625q0.015625 -0.109375 0.015625 -0.203125q0 -0.625 -0.71875 -0.859375l-1.84375 -0.578125q-0.9375 -0.296875 -1.34375 -0.890625q-0.390625 -0.59375 -0.390625 -1.4375q0 -0.03125 0 -0.0625q0.015625 -2.3593597 3.21875 -2.3593597q1.578125 0 2.828125 0.71875l-0.5 1.3125q-0.390625 -0.203125 -1.078125 -0.375q-0.6875 -0.171875 -1.296875 -0.171875q-0.59375 0 -0.875 0.21875q-0.265625 0.21875 -0.265625 0.73435974q0 0.515625 0.578125 0.703125l1.734375 0.546875q1.046875 0.328125 1.46875 0.921875q0.421875 0.59375 0.421875 1.65625q0 1.0625 -0.78125 1.78125q-0.78125 0.71875 -2.21875 0.71875zm8.25 0q-3.640625 0 -3.640625 -2.734375l0 -3.296875q0 -1.2968597 0.953125 -2.0156097q0.96875 -0.71875 2.6875 -0.71875q1.71875 0 2.671875 0.734375q0.96875 0.71875 0.96875 1.9999847l0 3.296875q0 2.03125 -1.921875 2.53125q-0.71875 0.203125 -1.71875 0.203125zm0 -1.484375q1.515625 0 1.515625 -1.15625l0 -3.484375q0 -0.62498474 -0.390625 -0.89060974q-0.375 -0.265625 -1.125 -0.265625q-1.515625 0 -1.515625 1.1562347l0 3.484375q0 0.625 0.375 0.890625q0.390625 0.265625 1.140625 0.265625zm8.734375 1.390625q-1.453125 0 -2.15625 -0.65625q-0.6875 -0.65625 -0.6875 -2.203125l0 -9.07811l2.125 0l0 9.04686q0 0.703125 0.328125 1.015625q0.328125 0.296875 1.171875 0.296875l0.265625 0l-0.15625 1.578125l-0.890625 0zm2.703125 -9.687485l0 -1.875l2.125 0l0 1.875l-2.125 0zm0 9.593735l0 -8.39061l2.125 0l0 8.39061l-2.125 0zm6.46875 -2.5q0 0.625 0.359375 0.90625q0.375 0.28125 1.1875 0.28125q0.8125 0 1.375 -0.34375l0 -5.1406097q-0.609375 -0.296875 -1.375 -0.296875q-0.765625 0 -1.15625 0.28125q-0.390625 0.265625 -0.390625 0.87498474l0 3.4375zm1.21875 2.6875q-1.671875 0 -2.515625 -0.703125q-0.828125 -0.71875 -0.828125 -2.015625l0 -3.359375q0 -1.2187347 0.859375 -1.9531097q0.875 -0.734375 2.625 -0.734375q0.75 0 1.5625 0.296875l0 -3.5625l2.125 0l0 11.843735l-1.4375 0l-0.21875 -0.5q-0.96875 0.6875 -2.171875 0.6875zm13.671875 -1.859375q1.046875 0 1.5625 -0.375l0 -4.4531097q0 -0.1875 -0.453125 -0.390625q-0.453125 -0.203125 -1.15625 -0.203125q-1.453125 0 -1.453125 1.1718597l0 3.140625q0 1.109375 1.5 1.109375zm-0.109375 5.125q-1.84375 0 -2.765625 -0.4375l0.4375 -1.453125q1.171875 0.328125 2.171875 0.328125q1.0 0 1.40625 -0.390625q0.421875 -0.390625 0.421875 -1.265625l0 -0.921875q-0.734375 0.4375 -2.09375 0.4375q-1.34375 0 -2.21875 -0.6875q-0.875 -0.703125 -0.875 -1.921875l0 -3.015625q0 -1.1249847 0.734375 -1.9062347q0.75 -0.796875 2.46875 -0.796875q0.65625 0 1.296875 0.234375q0.640625 0.21875 1.046875 0.546875l0.1875 -0.609375l1.578125 0l0 8.499985q0 3.359375 -3.796875 3.359375zm6.2265625 -3.453125l0 -8.39061l2.125 0l0 1.0q0.1875 -0.359375 0.78125 -0.640625q1.03125 -0.5 1.984375 -0.5q0.109375 0 0.203125 0.015625l-0.046875 1.796875q-1.40625 0.078125 -2.328125 0.53123474q-0.515625 0.25 -0.59375 0.5625l0 5.625l-2.125 0zm8.3359375 -5.09375l3.015625 0l0 -0.984375q0 -0.74998474 -0.609375 -0.92185974q-0.3125 -0.09375 -0.96875 -0.09375q-0.65625 0 -1.046875 0.21875q-0.390625 0.21875 -0.390625 0.84373474l0 0.9375zm0.046875 5.140625q-0.625 -0.140625 -1.125 -0.453125q-1.046875 -0.640625 -1.046875 -2.21875l0 -3.28125q0 -1.2656097 0.953125 -1.9687347q0.96875 -0.703125 2.625 -0.703125q3.578125 0 3.578125 2.7499847l0 2.03125l-5.03125 0l0 1.375q0 0.6875 0.34375 0.90625q0.34375 0.21875 1.15625 0.21875q0.828125 0 0.984375 -0.078125q0.34375 -0.203125 0.4375 -0.46875q0.109375 -0.28125 0.125 -0.734375l1.96875 0q-0.046875 1.9375 -1.359375 2.453125q-0.78125 0.296875 -1.890625 0.296875q-1.09375 0.015625 -1.71875 -0.125zm8.9296875 -5.140625l3.015625 0l0 -0.984375q0 -0.74998474 -0.609375 -0.92185974q-0.3125 -0.09375 -0.96875 -0.09375q-0.65625 0 -1.046875 0.21875q-0.390625 0.21875 -0.390625 0.84373474l0 0.9375zm0.046875 5.140625q-0.625 -0.140625 -1.125 -0.453125q-1.046875 -0.640625 -1.046875 -2.21875l0 -3.28125q0 -1.2656097 0.953125 -1.9687347q0.96875 -0.703125 2.625 -0.703125q3.578125 0 3.578125 2.7499847l0 2.03125l-5.03125 0l0 1.375q0 0.6875 0.34375 0.90625q0.34375 0.21875 1.15625 0.21875q0.828125 0 0.984375 -0.078125q0.34375 -0.203125 0.4375 -0.46875q0.109375 -0.28125 0.125 -0.734375l1.96875 0q-0.046875 1.9375 -1.359375 2.453125q-0.78125 0.296875 -1.890625 0.296875q-1.09375 0.015625 -1.71875 -0.125zm12.3203125 -5.953125q0 -1.0781097 -1.46875 -1.0781097q-0.640625 0 -1.140625 0.328125q-0.5 0.32810974 -0.5 0.90623474l0 5.75l-2.125 0l0 -8.39061l2.125 0l0 0.734375q1.078125 -0.9375 2.5 -0.9375q1.4375 0 2.078125 0.734375q0.65625 0.734375 0.65625 1.8437347l0 6.015625l-2.125 0l0 -5.90625z" fill-rule="nonzero"/><path fill="#d9d9d9" d="m237.94676 263.86l-0.84375 -0.359375q0.40625 -0.453125 0.765625 -1.203125q0.375 -0.765625 0.375 -1.484375l-1.28125 0l0 -2.15625l2.515625 0l0 1.734375q0 1.046875 -0.515625 2.03125q-0.515625 0.984375 -1.015625 1.4375zm-0.953125 -8.17186l0 -2.21875l2.328125 0l0 2.21875l-2.328125 0z" fill-rule="nonzero"/><path fill="#d9d9d9" d="m12.696769 278.5475q0 -2.40625 1.25 -2.796875q-0.6875 -0.25 -0.984375 -0.90625q-0.28125 -0.65625 -0.28125 -1.859375l0 -0.90625q0 -1.15625 -0.359375 -1.375q-0.34375 -0.234375 -1.09375 -0.234375l0 -1.359375q1.109375 0 1.796875 0.1875q0.703125 0.171875 1.109375 0.609375q0.421875 0.421875 0.578125 1.0625q0.15625 0.640625 0.15625 1.65625l0 0.6875q0 0.921875 0.328125 1.203125q0.1875 0.15625 0.4375 0.203125q0.265625 0.046875 0.71874905 0.046875l0 1.859375q-0.85937405 0 -1.171874 0.328125q-0.3125 0.3125 -0.3125 1.25l0 0.8125q0 1.140625 -0.140625 1.609375q-0.140625 0.46875 -0.28125 0.71875q-0.125 0.234375 -0.46875 0.484375q-0.609375 0.453125 -2.75 0.453125q0 -0.6875 -0.015625 -1.03125q0 -0.34375 0.015625 -0.34375q0.515625 0 0.796875 -0.046875q0.296875 -0.046875 0.4375 -0.21875q0.15625 -0.171875 0.1875 -0.390625q0.046875 -0.234375 0.046875 -0.6875l0 -1.015625z" fill-rule="nonzero"/><path fill="#e06666" d="m12.946769 297.86q0 0.625 0.359375 0.90625q0.375 0.28125 1.1875 0.28125q0.8125 0 1.375 -0.34375l0 -5.140625q-0.609375 -0.296875 -1.375 -0.296875q-0.765625 0 -1.15625 0.28125q-0.390625 0.265625 -0.390625 0.875l0 3.4375zm1.21875 2.6875q-1.671875 0 -2.515625 -0.703125q-0.828125 -0.71875 -0.828125 -2.015625l0 -3.359375q0 -1.21875 0.859375 -1.953125q0.875 -0.734375 2.625 -0.734375q0.75 0 1.5625 0.296875l0 -3.5625l2.124999 0l0 11.84375l-1.4375 0l-0.21875 -0.5q-0.96874905 0.6875 -2.171874 0.6875zm6.343749 -9.78125l0 -1.875l2.125 0l0 1.875l-2.125 0zm0 9.59375l0 -8.390625l2.125 0l0 8.390625l-2.125 0zm6.625 0l-2.984375 -8.390625l2.125 0l2.0 6.3125l1.953125 -6.3125l2.015627 0l-2.843752 8.390625l-2.265625 0z" fill-rule="nonzero"/><path fill="#cccccc" d="m43.142082 301.36q-1.109375 0 -1.8125 -0.171875q-0.6875 -0.171875 -1.109375 -0.625q-0.40625 -0.4375 -0.5625 -1.0625q-0.15625 -0.640625 -0.15625 -1.65625l0 -0.6875q0 -0.9375 -0.328125 -1.1875q-0.3125 -0.265625 -1.171875 -0.265625l0 -1.859375q0.875 0 1.1875 -0.3125q0.3125 -0.328125 0.3125 -1.265625l0 -0.8125q0 -1.140625 0.140625 -1.609375q0.140625 -0.46875 0.265625 -0.703125q0.140625 -0.234375 0.484375 -0.484375q0.609375 -0.453125 2.75 -0.453125q0 0.671875 0 1.015625l0 0.34375q-0.515625 0 -0.8125 0.046875q-0.28125 0.046875 -0.4375 0.21875q-0.140625 0.171875 -0.1875 0.40625q-0.03125 0.21875 -0.03125 0.671875l0 1.015625q0 2.390625 -1.25 2.796875q0.6875 0.234375 0.96875 0.90625q0.296875 0.65625 0.296875 1.84375l0 0.921875q0 0.5 0.03125 0.765625q0.046875 0.25 0.1875 0.46875q0.140625 0.21875 0.4375 0.296875q0.296875 0.078125 0.796875 0.078125l0 1.359375z" fill-rule="nonzero"/><path fill="#6d9eeb" d="m64.181145 313.4381q0 -1.171875 -1.4375 -1.171875q-0.703125 0 -1.515625 0.390625l0 5.015625q0.484375 0.375 1.296875 0.375q1.65625 0 1.65625 -1.21875l0 -3.390625zm2.125 3.34375q0 1.234375 -0.90625 2.0q-0.90625 0.765625 -2.25 0.765625q-1.34375 0 -2.375 -0.703125l-0.203125 0.515625l-1.46875 0l0 -11.84375l2.125 0l0 3.71875q0.84375 -0.453125 1.703125 -0.453125q2.125 0 2.890625 1.09375q0.484375 0.6875 0.484375 1.59375l0 3.3125zm3.96875 0.28125q0 1.0 1.09375 1.0q0.421875 0 0.890625 -0.21875q0.484375 -0.234375 0.765625 -0.640625l0 -2.09375q-0.375 0.296875 -1.328125 0.65625q-0.9375 0.34375 -1.1875 0.640625q-0.234375 0.28125 -0.234375 0.65625zm2.921875 1.359375q-0.375 0.484375 -1.0625 0.8125q-0.671875 0.3125 -1.65625 0.3125q-0.96875 0 -1.65625 -0.640625q-0.671875 -0.640625 -0.671875 -1.625q0 -0.984375 0.609375 -1.578125q0.625 -0.59375 2.359375 -1.140625q1.046875 -0.328125 1.46875 -0.59375q0.4375 -0.265625 0.4375 -0.734375q0 -0.96875 -1.328125 -0.96875q-0.734375 0 -1.015625 0.296875q-0.28125 0.28125 -0.28125 0.8125l0 0.328125l-2.0 0l0 -0.25q0 -1.25 0.828125 -1.953125q0.84375 -0.71875 2.578125 -0.71875q1.734375 0 2.515625 0.734375q0.796875 0.734375 0.796875 2.109375l0 3.328125q0 0.5625 0.140625 0.75q0.140625 0.171875 0.53125 0.171875l-0.078125 1.546875l-0.453125 0q-0.859375 0 -1.34375 -0.234375q-0.484375 -0.25 -0.71875 -0.765625zm7.8125 1.125q-2.4375 0 -3.140625 -1.109375q-0.453125 -0.671875 -0.453125 -1.640625l0 -3.359375q0 -1.25 0.90625 -1.953125q0.921875 -0.703125 2.609375 -0.703125q1.6875 0 2.546875 0.671875q0.859375 0.671875 0.859375 2.4375l-2.0 0.15625q0 -1.125 -0.28125 -1.453125q-0.15625 -0.203125 -0.40625 -0.265625q-0.234375 -0.0625 -0.8125 -0.0625q-1.296875 0 -1.296875 1.1875l0 3.390625q0 0.65625 0.34375 0.9375q0.34375 0.265625 1.0 0.265625q0.671875 0 0.9375 -0.125q0.28125 -0.125 0.390625 -0.453125q0.125 -0.34375 0.125 -1.078125l1.984375 0q-0.015625 0.921875 -0.171875 1.5q-0.15625 0.5625 -0.546875 0.953125q-0.703125 0.6875 -2.59375 0.703125zm5.3515625 -0.1875l0 -11.84375l2.125 0l0 7.140625l3.328125 -3.6875l2.421875 0l-3.15625 3.609375l3.296875 4.78125l-2.328125 0l-2.625 -3.890625l-0.9375 0.96875l0 2.921875l-2.125 0zm12.6953125 -1.671875q1.046875 0 1.5625 -0.375l0 -4.453125q0 -0.1875 -0.453125 -0.390625q-0.453125 -0.203125 -1.15625 -0.203125q-1.453125 0 -1.453125 1.171875l0 3.140625q0 1.109375 1.5 1.109375zm-0.109375 5.125q-1.84375 0 -2.765625 -0.4375l0.4375 -1.453125q1.171875 0.328125 2.171875 0.328125q1.0 0 1.40625 -0.390625q0.421875 -0.390625 0.421875 -1.265625l0 -0.921875q-0.734375 0.4375 -2.09375 0.4375q-1.34375 0 -2.21875 -0.6875q-0.875 -0.703125 -0.875 -1.921875l0 -3.015625q0 -1.125 0.734375 -1.90625q0.75 -0.796875 2.46875 -0.796875q0.65625 0 1.296875 0.234375q0.640625 0.21875 1.046875 0.546875l0.1875 -0.609375l1.578125 0l0 8.5q0 3.359375 -3.796875 3.359375zm6.2265625 -3.453125l0 -8.390625l2.125 0l0 1.0q0.1875 -0.359375 0.78125 -0.640625q1.03125 -0.5 1.984375 -0.5q0.109375 0 0.203125 0.015625l-0.046875 1.796875q-1.40625 0.078125 -2.328125 0.53125q-0.515625 0.25 -0.59375 0.5625l0 5.625l-2.125 0zm9.8515625 0.1875q-3.640625 0 -3.640625 -2.734375l0 -3.296875q0 -1.296875 0.953125 -2.015625q0.96875 -0.71875 2.6875 -0.71875q1.71875 0 2.671875 0.734375q0.96875 0.71875 0.96875 2.0l0 3.296875q0 2.03125 -1.921875 2.53125q-0.71875 0.203125 -1.71875 0.203125zm0 -1.484375q1.515625 0 1.515625 -1.15625l0 -3.484375q0 -0.625 -0.390625 -0.890625q-0.375 -0.265625 -1.125 -0.265625q-1.515625 0 -1.515625 1.15625l0 3.484375q0 0.625 0.375 0.890625q0.390625 0.265625 1.140625 0.265625zm11.078125 0.375q-0.25 0.515625 -0.96875 0.8125q-0.71875 0.296875 -1.59375 0.296875q-1.265625 0 -2.0 -0.703125q-0.71875 -0.703125 -0.71875 -1.765625l0 -6.109375l2.125 0l0 5.765625q0 0.609375 0.421875 0.90625q0.4375 0.296875 1.046875 0.296875q0.625 0 1.125 -0.328125q0.5 -0.34375 0.5 -0.984375l0 -5.65625l2.1249924 0l0 8.390625l-1.9999924 0l-0.0625 -0.921875zm9.757805 -4.984375q0 -1.078125 -1.46875 -1.078125q-0.640625 0 -1.140625 0.328125q-0.5 0.328125 -0.5 0.90625l0 5.75l-2.125 0l0 -8.390625l2.125 0l0 0.734375q1.078125 -0.9375 2.5 -0.9375q1.4375 0 2.078125 0.734375q0.65625 0.734375 0.65625 1.84375l0 6.015625l-2.125 0l0 -5.90625zm6.40625 3.40625q0 0.625 0.359375 0.90625q0.375 0.28125 1.1875 0.28125q0.8125 0 1.375 -0.34375l0 -5.140625q-0.609375 -0.296875 -1.375 -0.296875q-0.765625 0 -1.15625 0.28125q-0.390625 0.265625 -0.390625 0.875l0 3.4375zm1.21875 2.6875q-1.671875 0 -2.515625 -0.703125q-0.828125 -0.71875 -0.828125 -2.015625l0 -3.359375q0 -1.21875 0.859375 -1.953125q0.875 -0.734375 2.625 -0.734375q0.75 0 1.5625 0.296875l0 -3.5625l2.125 0l0 11.84375l-1.4375 0l-0.21875 -0.5q-0.96875 0.6875 -2.171875 0.6875zm6.078125 -4.046875l0 -1.15625l5.5 0l0 1.15625l-5.5 0zm11.09375 4.046875q-2.4375 0 -3.140625 -1.109375q-0.453125 -0.671875 -0.453125 -1.640625l0 -3.359375q0 -1.25 0.90625 -1.953125q0.921875 -0.703125 2.609375 -0.703125q1.6875 0 2.546875 0.671875q0.859375 0.671875 0.859375 2.4375l-2.0 0.15625q0 -1.125 -0.28125 -1.453125q-0.15625 -0.203125 -0.40625 -0.265625q-0.234375 -0.0625 -0.8125 -0.0625q-1.296875 0 -1.296875 1.1875l0 3.390625q0 0.65625 0.34375 0.9375q0.34375 0.265625 1.0 0.265625q0.671875 0 0.9375 -0.125q0.28125 -0.125 0.390625 -0.453125q0.125 -0.34375 0.125 -1.078125l1.984375 0q-0.015625 0.921875 -0.171875 1.5q-0.15625 0.5625 -0.546875 0.953125q-0.703125 0.6875 -2.59375 0.703125zm8.6953125 0q-3.640625 0 -3.640625 -2.734375l0 -3.296875q0 -1.296875 0.953125 -2.015625q0.96875 -0.71875 2.6875 -0.71875q1.71875 0 2.671875 0.734375q0.96875 0.71875 0.96875 2.0l0 3.296875q0 2.03125 -1.921875 2.53125q-0.71875 0.203125 -1.71875 0.203125zm0 -1.484375q1.515625 0 1.515625 -1.15625l0 -3.484375q0 -0.625 -0.390625 -0.890625q-0.375 -0.265625 -1.125 -0.265625q-1.515625 0 -1.515625 1.15625l0 3.484375q0 0.625 0.375 0.890625q0.390625 0.265625 1.140625 0.265625zm8.734375 1.390625q-1.453125 0 -2.15625 -0.65625q-0.6875 -0.65625 -0.6875 -2.203125l0 -9.078125l2.125 0l0 9.046875q0 0.703125 0.328125 1.015625q0.328125 0.296875 1.171875 0.296875l0.265625 0l-0.15625 1.578125l-0.890625 0zm6.015625 0.09375q-3.640625 0 -3.640625 -2.734375l0 -3.296875q0 -1.296875 0.953125 -2.015625q0.96875 -0.71875 2.6875 -0.71875q1.71875 0 2.671875 0.734375q0.96875 0.71875 0.96875 2.0l0 3.296875q0 2.03125 -1.921875 2.53125q-0.71875 0.203125 -1.71875 0.203125zm0 -1.484375q1.515625 0 1.515625 -1.15625l0 -3.484375q0 -0.625 -0.390625 -0.890625q-0.375 -0.265625 -1.125 -0.265625q-1.515625 0 -1.515625 1.15625l0 3.484375q0 0.625 0.375 0.890625q0.390625 0.265625 1.140625 0.265625zm5.859375 1.296875l0 -8.390625l2.125 0l0 1.0q0.1875 -0.359375 0.78125 -0.640625q1.03125 -0.5 1.984375 -0.5q0.109375 0 0.203125 0.015625l-0.046875 1.796875q-1.40625 0.078125 -2.328125 0.53125q-0.515625 0.25 -0.59375 0.5625l0 5.625l-2.125 0zm7.1328125 -1.546875l0 -2.21875l2.328125 0l0 2.21875l-2.328125 0zm0 -5.125l0 -2.21875l2.328125 0l0 2.21875l-2.328125 0z" fill-rule="nonzero"/><path fill="#ffd966" d="m209.83739 317.6881q1.046875 0 1.5625 -0.375l0 -4.453125q0 -0.1875 -0.453125 -0.390625q-0.453125 -0.203125 -1.15625 -0.203125q-1.453125 0 -1.453125 1.171875l0 3.140625q0 1.109375 1.5 1.109375zm-0.109375 5.125q-1.84375 0 -2.765625 -0.4375l0.4375 -1.453125q1.171875 0.328125 2.171875 0.328125q1.0 0 1.40625 -0.390625q0.421875 -0.390625 0.421875 -1.265625l0 -0.921875q-0.734375 0.4375 -2.09375 0.4375q-1.34375 0 -2.21875 -0.6875q-0.875 -0.703125 -0.875 -1.921875l0 -3.015625q0 -1.125 0.734375 -1.90625q0.75 -0.796875 2.46875 -0.796875q0.65625 0 1.296875 0.234375q0.640625 0.21875 1.046875 0.546875l0.1875 -0.609375l1.578125 0l0 8.5q0 3.359375 -3.796875 3.359375zm9.5859375 -3.265625q-3.640625 0 -3.640625 -2.734375l0 -3.296875q0 -1.296875 0.953125 -2.015625q0.96875 -0.71875 2.6875 -0.71875q1.71875 0 2.671875 0.734375q0.96875 0.71875 0.96875 2.0l0 3.296875q0 2.03125 -1.921875 2.53125q-0.71875 0.203125 -1.71875 0.203125zm0 -1.484375q1.515625 0 1.515625 -1.15625l0 -3.484375q0 -0.625 -0.390625 -0.890625q-0.375 -0.265625 -1.125 -0.265625q-1.515625 0 -1.515625 1.15625l0 3.484375q0 0.625 0.375 0.890625q0.390625 0.265625 1.140625 0.265625zm8.734375 1.390625q-1.453125 0 -2.15625 -0.65625q-0.6875 -0.65625 -0.6875 -2.203125l0 -9.078125l2.125 0l0 9.046875q0 0.703125 0.328125 1.015625q0.328125 0.296875 1.171875 0.296875l0.265625 0l-0.15625 1.578125l-0.890625 0zm4.5 -2.59375q0 0.625 0.359375 0.90625q0.375 0.28125 1.1875 0.28125q0.8125 0 1.375 -0.34375l0 -5.140625q-0.609375 -0.296875 -1.375 -0.296875q-0.765625 0 -1.15625 0.28125q-0.390625 0.265625 -0.390625 0.875l0 3.4375zm1.21875 2.6875q-1.671875 0 -2.515625 -0.703125q-0.828125 -0.71875 -0.828125 -2.015625l0 -3.359375q0 -1.21875 0.859375 -1.953125q0.875 -0.734375 2.625 -0.734375q0.75 0 1.5625 0.296875l0 -3.5625l2.125 0l0 11.84375l-1.4375 0l-0.21875 -0.5q-0.96875 0.6875 -2.171875 0.6875z" fill-rule="nonzero"/><path fill="#d9d9d9" d="m241.6577 320.86l-0.84375 -0.359375q0.40625 -0.453125 0.765625 -1.203125q0.375 -0.765625 0.375 -1.484375l-1.28125 0l0 -2.15625l2.515625 0l0 1.734375q0 1.046875 -0.515625 2.03125q-0.515625 0.984375 -1.015625 1.4375zm-0.953125 -8.171875l0 -2.21875l2.328125 0l0 2.21875l-2.328125 0z" fill-rule="nonzero"/><path fill="#6d9eeb" d="m59.649895 338.36l0 -7.046875l-1.125 0l0 -1.34375l1.125 0l0 -0.40625q0 -1.515625 0.671875 -2.28125q0.6875 -0.765625 2.15625 -0.765625l0.984375 0l0.046875 1.46875l-0.65625 0q-0.625 0 -0.859375 0.3125q-0.21875 0.296875 -0.21875 0.796875l0 0.875l1.671875 0l0 1.34375l-1.671875 0l0 7.046875l-2.125 0zm8.828125 0.1875q-3.640625 0 -3.640625 -2.734375l0 -3.296875q0 -1.296875 0.953125 -2.015625q0.96875 -0.71875 2.6875 -0.71875q1.71875 0 2.671875 0.734375q0.96875 0.71875 0.96875 2.0l0 3.296875q0 2.03125 -1.921875 2.53125q-0.71875 0.203125 -1.71875 0.203125zm0 -1.484375q1.515625 0 1.515625 -1.15625l0 -3.484375q0 -0.625 -0.390625 -0.890625q-0.375 -0.265625 -1.125 -0.265625q-1.515625 0 -1.515625 1.15625l0 3.484375q0 0.625 0.375 0.890625q0.390625 0.265625 1.140625 0.265625zm11.09375 -4.609375q0 -1.078125 -1.46875 -1.078125q-0.640625 0 -1.140625 0.328125q-0.5 0.328125 -0.5 0.90625l0 5.75l-2.125 0l0 -8.390625l2.125 0l0 0.734375q1.078125 -0.9375 2.5 -0.9375q1.4375 0 2.078125 0.734375q0.65625 0.734375 0.65625 1.84375l0 6.015625l-2.125 0l0 -5.90625zm8.5 6.0q-1.90625 0 -2.734375 -0.578125q-0.828125 -0.578125 -0.828125 -2.1875l0 -4.375l-1.125 0l0 -1.34375l1.1875 0l0.1875 -2.703125l1.875 0l0 2.703125l1.984375 0l0 1.34375l-1.984375 0l0 4.234375q0 0.78125 0.359375 1.0625q0.375 0.265625 1.4375 0.265625l0.25 0l-0.078125 1.578125l-0.53125 0zm2.1953125 -3.953125l0 -1.15625l5.5 0l0 1.15625l-5.5 0zm8.328125 3.859375l0 -7.046875l-1.125 0l0 -1.34375l1.125 0l0 -0.40625q0 -1.515625 0.671875 -2.28125q0.6875 -0.765625 2.15625 -0.765625l0.984375 0l0.046875 1.46875l-0.65625 0q-0.625 0 -0.859375 0.3125q-0.21875 0.296875 -0.21875 0.796875l0 0.875l1.671875 0l0 1.34375l-1.671875 0l0 7.046875l-2.125 0zm7.21875 -2.296875q0 1.0 1.09375 1.0q0.421875 0 0.890625 -0.21875q0.484375 -0.234375 0.765625 -0.640625l0 -2.09375q-0.375 0.296875 -1.328125 0.65625q-0.9375 0.34375 -1.1875 0.640625q-0.234375 0.28125 -0.234375 0.65625zm2.921875 1.359375q-0.375 0.484375 -1.0625 0.8125q-0.671875 0.3125 -1.65625 0.3125q-0.96875 0 -1.65625 -0.640625q-0.671875 -0.640625 -0.671875 -1.625q0 -0.984375 0.609375 -1.578125q0.625 -0.59375 2.359375 -1.140625q1.046875 -0.328125 1.46875 -0.59375q0.4375 -0.265625 0.4375 -0.734375q0 -0.96875 -1.328125 -0.96875q-0.734375 0 -1.015625 0.296875q-0.28125 0.28125 -0.28125 0.8125l0 0.328125l-2.0 0l0 -0.25q0 -1.25 0.828125 -1.953125q0.84375 -0.71875 2.578125 -0.71875q1.734375 0 2.515625 0.734375q0.796875 0.734375 0.796875 2.109375l0 3.328125q0 0.5625 0.140625 0.75q0.140625 0.171875 0.53125 0.171875l-0.078125 1.546875l-0.453125 0q-0.859375 0 -1.34375 -0.234375q-0.484375 -0.25 -0.71875 -0.765625zm4.5 0.9375l0 -8.390625l2.125 0l0 0.75q0.4375 -0.453125 1.140625 -0.6875q0.703125 -0.25 1.34375 -0.25q1.671875 0 2.296875 1.046875q1.046875 -1.046875 2.796875 -1.046875q1.203125 0 1.921875 0.65625q0.734375 0.65625 0.734375 1.71875l0 6.203125l-2.125 0l0 -5.953125q0 -0.609375 -0.3125 -0.828125q-0.3125 -0.234375 -0.921875 -0.234375q-0.59375 0 -1.140625 0.3125q-0.546875 0.3125 -0.59375 0.84375l0 5.859375l-2.125 0l0 -5.953125q0 -0.609375 -0.34375 -0.828125q-0.328125 -0.234375 -0.953125 -0.234375q-0.609375 0 -1.171875 0.34375q-0.546875 0.328125 -0.546875 0.890625l0 5.78125l-2.125 0zm14.843742 -9.59375l0 -1.875l2.125 0l0 1.875l-2.125 0zm0 9.59375l0 -8.390625l2.125 0l0 8.390625l-2.125 0zm7.5 0.09375q-1.453125 0 -2.15625 -0.65625q-0.6875 -0.65625 -0.6875 -2.203125l0 -9.078125l2.125 0l0 9.046875q0 0.703125 0.328125 1.015625q0.328125 0.296875 1.171875 0.296875l0.265625 0l-0.15625 1.578125l-0.890625 0zm2.5625 3.703125l-0.15625 -1.765625q1.125 -0.21875 1.625 -0.859375q0.515625 -0.625 0.796875 -1.453125l-3.15625 -8.109375l2.046875 0l2.171875 5.625l1.75 -5.625l2.109375 0l-2.546875 7.296875q-0.65625 1.890625 -1.203125 2.703125q-0.53125 0.828125 -1.0 1.203125q-0.984375 0.796875 -2.4375 0.984375zm9.1953125 -5.34375l0 -2.21875l2.328125 0l0 2.21875l-2.328125 0zm0 -5.125l0 -2.21875l2.328125 0l0 2.21875l-2.328125 0z" fill-rule="nonzero"/><path fill="#ffd966" d="m158.48582 336.0631q0 1.0 1.09375 1.0q0.421875 0 0.890625 -0.21875q0.484375 -0.234375 0.765625 -0.640625l0 -2.09375q-0.375 0.296875 -1.328125 0.65625q-0.9375 0.34375 -1.1875 0.640625q-0.234375 0.28125 -0.234375 0.65625zm2.921875 1.359375q-0.375 0.484375 -1.0625 0.8125q-0.671875 0.3125 -1.65625 0.3125q-0.96875 0 -1.65625 -0.640625q-0.671875 -0.640625 -0.671875 -1.625q0 -0.984375 0.609375 -1.578125q0.625 -0.59375 2.359375 -1.140625q1.046875 -0.328125 1.46875 -0.59375q0.4375 -0.265625 0.4375 -0.734375q0 -0.96875 -1.328125 -0.96875q-0.734375 0 -1.015625 0.296875q-0.28125 0.28125 -0.28125 0.8125l0 0.328125l-2.0 0l0 -0.25q0 -1.25 0.828125 -1.953125q0.84375 -0.71875 2.578125 -0.71875q1.734375 0 2.515625 0.734375q0.796875 0.734375 0.796875 2.109375l0 3.328125q0 0.5625 0.140625 0.75q0.140625 0.171875 0.53125 0.171875l-0.078125 1.546875l-0.453125 0q-0.859375 0 -1.34375 -0.234375q-0.484375 -0.25 -0.71875 -0.765625zm4.5 0.9375l0 -8.390625l2.125 0l0 1.0q0.1875 -0.359375 0.78125 -0.640625q1.03125 -0.5 1.984375 -0.5q0.109375 0 0.203125 0.015625l-0.046875 1.796875q-1.40625 0.078125 -2.328125 0.53125q-0.515625 0.25 -0.59375 0.5625l0 5.625l-2.125 0zm6.5390625 -9.59375l0 -1.875l2.125 0l0 1.875l-2.125 0zm0 9.59375l0 -8.390625l2.125 0l0 8.390625l-2.125 0zm6.375 -2.296875q0 1.0 1.09375 1.0q0.421875 0 0.890625 -0.21875q0.484375 -0.234375 0.765625 -0.640625l0 -2.09375q-0.375 0.296875 -1.328125 0.65625q-0.9375 0.34375 -1.1875 0.640625q-0.234375 0.28125 -0.234375 0.65625zm2.921875 1.359375q-0.375 0.484375 -1.0625 0.8125q-0.671875 0.3125 -1.65625 0.3125q-0.96875 0 -1.65625 -0.640625q-0.671875 -0.640625 -0.671875 -1.625q0 -0.984375 0.609375 -1.578125q0.625 -0.59375 2.359375 -1.140625q1.046875 -0.328125 1.46875 -0.59375q0.4375 -0.265625 0.4375 -0.734375q0 -0.96875 -1.328125 -0.96875q-0.734375 0 -1.015625 0.296875q-0.28125 0.28125 -0.28125 0.8125l0 0.328125l-2.0 0l0 -0.25q0 -1.25 0.828125 -1.953125q0.84375 -0.71875 2.578125 -0.71875q1.734375 0 2.515625 0.734375q0.796875 0.734375 0.796875 2.109375l0 3.328125q0 0.5625 0.140625 0.75q0.140625 0.171875 0.53125 0.171875l-0.078125 1.546875l-0.453125 0q-0.859375 0 -1.34375 -0.234375q-0.484375 -0.25 -0.71875 -0.765625zm7.375 1.03125q-1.453125 0 -2.15625 -0.65625q-0.6875 -0.65625 -0.6875 -2.203125l0 -9.078125l2.125 0l0 9.046875q0 0.703125 0.328125 1.015625q0.328125 0.296875 1.171875 0.296875l0.265625 0l-0.15625 1.578125l-0.890625 0z" fill-rule="nonzero"/><path fill="#d9d9d9" d="m193.36864 339.86l-0.84375 -0.359375q0.40625 -0.453125 0.765625 -1.203125q0.375 -0.765625 0.375 -1.484375l-1.28125 0l0 -2.15625l2.515625 0l0 1.734375q0 1.046875 -0.515625 2.03125q-0.515625 0.984375 -1.015625 1.4375zm-0.953125 -8.171875l0 -2.21875l2.328125 0l0 2.21875l-2.328125 0z" fill-rule="nonzero"/><path fill="#d9d9d9" d="m12.696769 354.5475q0 -2.40625 1.25 -2.796875q-0.6875 -0.25 -0.984375 -0.90625q-0.28125 -0.65625 -0.28125 -1.859375l0 -0.90625q0 -1.15625 -0.359375 -1.375q-0.34375 -0.234375 -1.09375 -0.234375l0 -1.359375q1.109375 0 1.796875 0.1875q0.703125 0.171875 1.109375 0.609375q0.421875 0.421875 0.578125 1.0625q0.15625 0.640625 0.15625 1.65625l0 0.6875q0 0.921875 0.328125 1.203125q0.1875 0.15625 0.4375 0.203125q0.265625 0.046875 0.71874905 0.046875l0 1.859375q-0.85937405 0 -1.171874 0.328125q-0.3125 0.3125 -0.3125 1.25l0 0.8125q0 1.140625 -0.140625 1.609375q-0.140625 0.46875 -0.28125 0.71875q-0.125 0.234375 -0.46875 0.484375q-0.609375 0.453125 -2.75 0.453125q0 -0.6875 -0.015625 -1.03125q0 -0.34375 0.015625 -0.34375q0.515625 0 0.796875 -0.046875q0.296875 -0.046875 0.4375 -0.21875q0.15625 -0.171875 0.1875 -0.390625q0.046875 -0.234375 0.046875 -0.6875l0 -1.015625z" fill-rule="nonzero"/><path fill="#434343" d="m-29.209974 196.23622l386.64566 0l0 7.5275574l-386.64566 0z" fill-rule="evenodd"/></g></svg>