<svg version="1.1" viewBox="0.0 0.0 616.0 500.0" fill="none" stroke="none" stroke-linecap="square" stroke-miterlimit="10" xmlns:xlink="http://www.w3.org/1999/xlink" xmlns="http://www.w3.org/2000/svg"><clipPath id="p.0"><path d="m0 0l616.0 0l0 500.0l-616.0 0l0 -500.0z" clip-rule="nonzero"/></clipPath><g clip-path="url(#p.0)"><path fill="#e9f1f9" d="m0 0l616.0 0l0 500.0l-616.0 0z" fill-rule="evenodd"/><path fill="#6aa84f" d="m-77.40682 280.33334l726.9921 0l0 225.95276l-726.9921 0z" fill-rule="evenodd"/><path fill="#73a9fe" d="m293.6614 366.49606l0 0c0 -35.24185 28.569183 -63.811035 63.811035 -63.811035l0 0c16.923737 0 33.154327 6.722931 45.121216 18.68982c11.966888 11.966888 18.68982 28.19748 18.68982 45.121216l0 0c0 35.24185 -28.569183 63.811035 -63.811035 63.811035l0 0c-35.24185 0 -63.811035 -28.569183 -63.811035 -63.811035z" fill-rule="evenodd"/><path fill="#73a9fe" d="m101.661415 238.49606l0 0c0 -35.24185 28.569176 -63.81102 63.811028 -63.81102l0 0c16.923737 0 33.154312 6.722931 45.1212 18.68982c11.966888 11.966888 18.68982 28.197464 18.68982 45.1212l0 0c0 35.24185 -28.569168 63.811035 -63.81102 63.811035l0 0c-35.24185 0 -63.811028 -28.569183 -63.811028 -63.811035z" fill-rule="evenodd"/><path fill="#6d9eeb" d="m138.5433 238.49606l0 0c0 -68.1702 55.26288 -123.43307 123.433075 -123.43307l0 0c32.73648 0 64.13217 13.004509 87.280365 36.152702c23.148193 23.148193 36.15271 54.543884 36.15271 87.280365l0 0c0 68.1702 -55.26288 123.433075 -123.433075 123.433075l0 0c-68.1702 0 -123.433075 -55.26288 -123.433075 -123.433075z" fill-rule="evenodd"/><path fill="#6693d9" d="m293.6614 238.49606l0 0c0 -35.24185 28.569183 -63.81102 63.811035 -63.81102l0 0c16.923737 0 33.154327 6.722931 45.121216 18.68982c11.966888 11.966888 18.68982 28.197464 18.68982 45.1212l0 0c0 35.24185 -28.569183 63.811035 -63.811035 63.811035l0 0c-35.24185 0 -63.811035 -28.569183 -63.811035 -63.811035z" fill-rule="evenodd"/><path fill="#6693d9" d="m101.661415 374.49606l0 0c0 -35.24185 28.569176 -63.811035 63.811028 -63.811035l0 0c16.923737 0 33.154312 6.722931 45.1212 18.68982c11.966888 11.966888 18.68982 28.19748 18.68982 45.121216l0 0c0 35.24185 -28.569168 63.811035 -63.81102 63.811035l0 0c-35.24185 0 -63.811028 -28.569183 -63.811028 -63.811035z" fill-rule="evenodd"/><path fill="#434343" d="m28.24147 169.4567l0 0c0 -2.8875427 2.3408108 -5.228348 5.228348 -5.228348l134.96063 0c1.3866425 0 2.7164917 0.5508423 3.696991 1.5313416c0.9805145 0.9805145 1.5313568 2.3103638 1.5313568 3.6970062l0 0l0 0c0 2.8875275 -2.3408203 5.228348 -5.228348 5.228348l-134.96063 0c-2.887537 0 -5.228348 -2.3408203 -5.228348 -5.228348z" fill-rule="evenodd"/><path fill="#434343" d="m7.3228345 233.4567l0 0c0 -2.8875427 2.3408103 -5.228348 5.2283463 -5.228348l161.10237 0c1.3866425 0 2.7164917 0.5508423 3.696991 1.5313416c0.9805145 0.9805145 1.5313568 2.3103638 1.5313568 3.6970062l0 0l0 0c0 2.8875275 -2.3408203 5.228348 -5.228348 5.228348l-161.10237 0c-2.887536 0 -5.2283463 -2.3408203 -5.2283463 -5.228348z" fill-rule="evenodd"/><path fill="#434343" d="m28.24147 297.4567l0 0c0 -2.8875427 2.3408108 -5.228363 5.228348 -5.228363l140.50394 0c1.3866425 0 2.7164917 0.5508423 3.696991 1.5313721c0.9805145 0.98049927 1.5313568 2.3103333 1.5313568 3.696991l0 0l0 0c0 2.8875427 -2.3408203 5.2283325 -5.228348 5.2283325l-140.50394 0c-2.887537 0 -5.228348 -2.3407898 -5.228348 -5.2283325z" fill-rule="evenodd"/><path fill="#f1c232" d="m528.7664 302.70078l0 0c7.701538 0 13.944885 -31.001617 13.944885 -69.24408c0 -38.242462 -6.243347 -69.244095 -13.944885 -69.244095l27.88977 0c7.701538 0 13.944885 31.001633 13.944885 69.244095c0 38.242462 -6.243347 69.24408 -13.944885 69.24408z" fill-rule="evenodd"/><path fill="#f6da84" d="m528.7664 302.70078l0 0c-7.701538 0 -13.944885 -31.001617 -13.944885 -69.24408c0 -38.242462 6.243347 -69.244095 13.944885 -69.244095l0 0c7.701538 0 13.944885 31.001633 13.944885 69.244095c0 38.242462 -6.243347 69.24408 -13.944885 69.24408z" fill-rule="evenodd"/><path fill="#000000" fill-opacity="0.0" d="m528.7664 164.2126l0 0c7.701538 0 13.944885 31.001633 13.944885 69.244095c0 38.242462 -6.243347 69.24408 -13.944885 69.24408l0 0c-7.701538 0 -13.944885 -31.001617 -13.944885 -69.24408c0 -38.242462 6.243347 -69.244095 13.944885 -69.244095l27.88977 0c7.701538 0 13.944885 31.001633 13.944885 69.244095c0 38.242462 -6.243347 69.24408 -13.944885 69.24408l-27.88977 0" fill-rule="evenodd"/></g></svg>