<svg version="1.1" viewBox="0.0 0.0 616.0 500.0" fill="none" stroke="none" stroke-linecap="square" stroke-miterlimit="10" xmlns:xlink="http://www.w3.org/1999/xlink" xmlns="http://www.w3.org/2000/svg"><clipPath id="p.0"><path d="m0 0l616.0 0l0 500.0l-616.0 0l0 -500.0z" clip-rule="nonzero"/></clipPath><g clip-path="url(#p.0)"><path fill="#000000" fill-opacity="0.0" d="m0 0l616.0 0l0 500.0l-616.0 0z" fill-rule="evenodd"/><path fill="#000000" d="m-125.631935 68.594215l0 0c0 -48.81367 39.571297 -88.38497 88.38497 -88.38497l612.6789 0c23.441101 0 45.92218 9.311962 62.49756 25.88736c16.57544 16.575397 25.88739 39.05646 25.88739 62.497612l0 353.52927c0 48.81369 -39.57129 88.38498 -88.38495 88.38498l-612.6789 0l0 0c-48.813675 0 -88.38497 -39.57129 -88.38497 -88.38498z" fill-rule="evenodd"/><path stroke="#000000" stroke-width="1.0" stroke-linejoin="round" stroke-linecap="butt" d="m-125.631935 68.594215l0 0c0 -48.81367 39.571297 -88.38497 88.38497 -88.38497l612.6789 0c23.441101 0 45.92218 9.311962 62.49756 25.88736c16.57544 16.575397 25.88739 39.05646 25.88739 62.497612l0 353.52927c0 48.81369 -39.57129 88.38498 -88.38495 88.38498l-612.6789 0l0 0c-48.813675 0 -88.38497 -39.57129 -88.38497 -88.38498z" fill-rule="evenodd"/><path fill="#999999" d="m161.86667 398.00146l8.220474 -11.748047l0 0c4.540039 -6.4882507 11.534271 -9.026489 15.62204 -5.669281c4.087784 3.3572083 3.7211456 11.338501 -0.81889343 17.826782l-8.220474 11.748016z" fill-rule="evenodd"/><path fill="#999999" d="m141.75162 382.45172l8.220459 -11.748016l0 0c4.5400543 -6.4882507 11.534271 -9.026489 15.622055 -5.669281c4.087784 3.3571777 3.7211456 11.338501 -0.81889343 17.826752l-8.220474 11.748047z" fill-rule="evenodd"/><path fill="#b7b7b7" d="m188.1456 433.83417c-8.349304 11.44873 3.0693817 -14.00296 -1.2671967 -22.657043c-4.336563 -8.654053 -15.5156555 -22.567902 -24.752243 -29.267334c-9.236588 -6.6994324 -22.518051 -10.486267 -30.667252 -10.92923c-8.1492 -0.44296265 -25.925613 20.88504 -18.227974 8.271423c7.6976395 -12.613617 42.9569 -65.35455 64.413795 -83.953156c21.45691 -18.598602 54.43936 -35.50284 64.32761 -27.63852c9.88826 7.864319 3.973053 47.128815 -4.998062 74.82446c-8.97113 27.695648 -40.479355 79.900665 -48.828674 91.349396z" fill-rule="evenodd"/><path stroke="#666666" stroke-width="3.0" stroke-linejoin="round" stroke-linecap="butt" d="m188.1456 433.83417c-8.349304 11.44873 3.0693817 -14.00296 -1.2671967 -22.657043c-4.336563 -8.654053 -15.5156555 -22.567902 -24.752243 -29.267334c-9.236588 -6.6994324 -22.518051 -10.486267 -30.667252 -10.92923c-8.1492 -0.44296265 -25.925613 20.88504 -18.227974 8.271423c7.6976395 -12.613617 42.9569 -65.35455 64.413795 -83.953156c21.45691 -18.598602 54.43936 -35.50284 64.32761 -27.63852c9.88826 7.864319 3.973053 47.128815 -4.998062 74.82446c-8.97113 27.695648 -40.479355 79.900665 -48.828674 91.349396z" fill-rule="evenodd"/><path fill="#ffff00" d="m142.26039 383.42233c5.2178345 0.8183899 13.763367 5.728485 14.973267 10.801971c1.2098999 5.073517 -3.9328156 14.401794 -7.7138367 19.639038c-3.7810364 5.237274 -14.291794 13.0937195 -14.972321 11.784454c-0.680542 -1.3092651 13.006622 -19.558105 10.88913 -19.640045c-2.1174927 -0.081970215 -21.85479 19.72116 -23.59407 19.148315c-1.7392731 -0.57284546 13.91452 -20.29419 13.158417 -22.585419c-0.7561188 -2.2912292 -16.031387 9.574493 -17.695084 8.838074c-1.6636963 -0.7364197 9.07412 -12.601959 7.7128983 -13.256592c-1.3612137 -0.65463257 -16.031532 10.801819 -15.8802185 9.328796c0.15131378 -1.4730225 11.267815 -14.1571045 16.788124 -18.16687c5.520294 -4.0097656 11.115875 -6.7101135 16.333694 -5.8917236z" fill-rule="evenodd"/><path fill="#ffff00" d="m178.7027 411.00836c-1.4681702 -5.481415 -7.1403046 -13.967316 -11.951111 -14.566132c-4.8108063 -0.59884644 -12.640839 6.1986084 -16.913757 10.973114c-4.2729034 4.7745056 -10.015945 17.124512 -8.723709 17.67389c1.2922363 0.54940796 16.11029 -16.636383 16.477112 -14.377502c0.3668213 2.2588806 -15.040222 26.14502 -14.276184 27.930847c0.76405334 1.7858276 16.658966 -17.71109 18.860443 -17.21582c2.2014923 0.49526978 -6.5548706 18.505157 -5.65152 20.187439c0.9033661 1.682312 10.284866 -11.462921 11.071671 -10.093658c0.78681946 1.3692627 -7.6782837 18.674225 -6.3507996 18.309265c1.3274841 -0.36495972 11.406067 -14.028839 14.315704 -20.499084c2.9096375 -6.4702454 4.610306 -12.840942 3.1421509 -18.322357z" fill-rule="evenodd"/><path fill="#000000" fill-opacity="0.0" d="m258.414 241.83775l-12.724426 22.07875" fill-rule="evenodd"/><path stroke="#ffff00" stroke-width="4.0" stroke-linejoin="round" stroke-linecap="butt" d="m258.414 241.83775l-12.724426 22.07875" fill-rule="evenodd"/><path fill="#000000" fill-opacity="0.0" d="m272.7819 232.50792l-12.724426 22.078735" fill-rule="evenodd"/><path stroke="#ffff00" stroke-width="4.0" stroke-linejoin="round" stroke-linecap="butt" d="m272.7819 232.50792l-12.724426 22.078735" fill-rule="evenodd"/><path fill="#000000" fill-opacity="0.0" d="m275.65546 210.73831l-12.724396 22.078735" fill-rule="evenodd"/><path stroke="#ffff00" stroke-width="4.0" stroke-linejoin="round" stroke-linecap="butt" d="m275.65546 210.73831l-12.724396 22.078735" fill-rule="evenodd"/><path fill="#000000" fill-opacity="0.0" d="m325.87656 133.69069l0 0c0 -47.557365 37.608093 -86.11023 84.0 -86.11023l0 0c22.278198 0 43.64392 9.072304 59.396973 25.221104c15.753052 16.148804 24.603027 38.051277 24.603027 60.88913l0 0c0 47.557373 -37.608063 86.110245 -84.0 86.110245l0 0c-46.391907 0 -84.0 -38.55287 -84.0 -86.110245z" fill-rule="evenodd"/><path stroke="#0000ff" stroke-width="4.0" stroke-linejoin="round" stroke-linecap="butt" d="m325.87656 133.69069l0 0c0 -47.557365 37.608093 -86.11023 84.0 -86.11023l0 0c22.278198 0 43.64392 9.072304 59.396973 25.221104c15.753052 16.148804 24.603027 38.051277 24.603027 60.88913l0 0c0 47.557373 -37.608063 86.110245 -84.0 86.110245l0 0c-46.391907 0 -84.0 -38.55287 -84.0 -86.110245z" fill-rule="evenodd"/><path fill="#d9d9d9" d="m316.41998 184.86137l0 0c0 -19.621338 42.642242 -35.527573 95.24408 -35.527573l0 0c52.601868 0 95.24411 15.906235 95.24411 35.527573l0 0c0 19.621323 -42.642242 35.527557 -95.24411 35.527557l0 0c-52.601837 0 -95.24408 -15.906235 -95.24408 -35.527557z" fill-rule="evenodd"/><path stroke="#000000" stroke-width="2.0" stroke-linejoin="round" stroke-linecap="butt" d="m316.41998 184.86137l0 0c0 -19.621338 42.642242 -35.527573 95.24408 -35.527573l0 0c52.601868 0 95.24411 15.906235 95.24411 35.527573l0 0c0 19.621323 -42.642242 35.527557 -95.24411 35.527557l0 0c-52.601837 0 -95.24408 -15.906235 -95.24408 -35.527557z" fill-rule="evenodd"/><path fill="#00ff00" d="m392.33875 94.94737l0 0c0 -14.533348 8.841492 -26.314957 19.748047 -26.314957l0 0c5.237488 0 10.260468 2.772461 13.963959 7.7074738c3.7034607 4.935013 5.7840576 11.628326 5.7840576 18.607483l0 0c0 14.533356 -8.841492 26.314964 -19.748016 26.314964l0 0c-10.906555 0 -19.748047 -11.781609 -19.748047 -26.314964z" fill-rule="evenodd"/><path fill="#000000" fill-opacity="0.0" d="m412.0868 121.26234l-0.40945435 28.062996" fill-rule="evenodd"/><path stroke="#00ff00" stroke-width="4.0" stroke-linejoin="round" stroke-linecap="butt" d="m412.0868 121.26234l-0.40945435 28.062996" fill-rule="evenodd"/><path fill="#000000" fill-opacity="0.0" d="m411.25192 120.09423l-16.22049 31.590553" fill-rule="evenodd"/><path stroke="#00ff00" stroke-width="4.0" stroke-linejoin="round" stroke-linecap="butt" d="m411.25192 120.09423l-16.22049 31.590553" fill-rule="evenodd"/><path fill="#000000" fill-opacity="0.0" d="m411.25403 120.09423l16.22049 31.590553" fill-rule="evenodd"/><path stroke="#00ff00" stroke-width="4.0" stroke-linejoin="round" stroke-linecap="butt" d="m411.25403 120.09423l16.22049 31.590553" fill-rule="evenodd"/><path fill="#000000" d="m395.3105 89.39913l0 0c0 -3.879036 2.8484802 -7.0236206 6.362213 -7.0236206l0 0c1.6873779 0 3.3056335 0.7399826 4.498749 2.057167c1.1931458 1.3171844 1.8634644 3.1036758 1.8634644 4.9664536l0 0c0 3.8790436 -2.8484497 7.0236206 -6.362213 7.0236206l0 0c-3.513733 0 -6.362213 -3.144577 -6.362213 -7.0236206z" fill-rule="evenodd"/><path stroke="#000000" stroke-width="1.0" stroke-linejoin="round" stroke-linecap="butt" d="m395.3105 89.39913l0 0c0 -3.879036 2.8484802 -7.0236206 6.362213 -7.0236206l0 0c1.6873779 0 3.3056335 0.7399826 4.498749 2.057167c1.1931458 1.3171844 1.8634644 3.1036758 1.8634644 4.9664536l0 0c0 3.8790436 -2.8484497 7.0236206 -6.362213 7.0236206l0 0c-3.513733 0 -6.362213 -3.144577 -6.362213 -7.0236206z" fill-rule="evenodd"/><path fill="#000000" d="m415.84384 89.39913l0 0c0 -3.879036 2.8484497 -7.0236206 6.3621826 -7.0236206l0 0c1.6873779 0 3.3056335 0.7399826 4.4987793 2.057167c1.1931458 1.3171844 1.8634338 3.1036758 1.8634338 4.9664536l0 0c0 3.8790436 -2.8484497 7.0236206 -6.362213 7.0236206l0 0c-3.513733 0 -6.3621826 -3.144577 -6.3621826 -7.0236206z" fill-rule="evenodd"/><path stroke="#000000" stroke-width="1.0" stroke-linejoin="round" stroke-linecap="butt" d="m415.84384 89.39913l0 0c0 -3.879036 2.8484497 -7.0236206 6.3621826 -7.0236206l0 0c1.6873779 0 3.3056335 0.7399826 4.4987793 2.057167c1.1931458 1.3171844 1.8634338 3.1036758 1.8634338 4.9664536l0 0c0 3.8790436 -2.8484497 7.0236206 -6.362213 7.0236206l0 0c-3.513733 0 -6.3621826 -3.144577 -6.3621826 -7.0236206z" fill-rule="evenodd"/><path fill="#000000" d="m399.3213 104.22166l0 0c0 6.583931 5.7180786 11.921257 12.7716675 11.921257c7.053589 0 12.771637 -5.337326 12.771637 -11.921257l-5.9606323 0c0 3.2919617 -3.0493774 5.9606247 -6.8110046 5.9606247c-3.7616272 0 -6.811035 -2.668663 -6.811035 -5.9606247z" fill-rule="evenodd"/><path stroke="#000000" stroke-width="1.0" stroke-linejoin="round" stroke-linecap="butt" d="m399.3213 104.22166l0 0c0 6.583931 5.7180786 11.921257 12.7716675 11.921257c7.053589 0 12.771637 -5.337326 12.771637 -11.921257l-5.9606323 0c0 3.2919617 -3.0493774 5.9606247 -6.8110046 5.9606247c-3.7616272 0 -6.811035 -2.668663 -6.811035 -5.9606247z" fill-rule="evenodd"/><path fill="#0000ff" d="m-61.059383 16.14195l0 0c0 -100.52452 75.300766 -182.01575 168.18898 -182.01575l0 0c44.60649 0 87.38602 19.176605 118.92757 53.311172c31.541565 34.134575 49.261414 80.431 49.261414 128.70457l0 0c0 100.52452 -75.300766 182.01575 -168.18898 182.01575l0 0c-92.88821 0 -168.18898 -81.49123 -168.18898 -182.01575z" fill-rule="evenodd"/><path fill="#00ff00" d="m39.17702 176.15746c15.670845 4.151825 44.986088 -9.648697 59.17114 -35.962982c14.185051 -26.3143 11.213753 -101.74874 25.93917 -121.92279c14.72541 -20.174051 58.7658 15.555653 62.413322 0.8784809c3.647522 -14.677174 -17.021606 -76.74912 -40.528152 -88.94152c-23.506546 -12.192406 -83.08388 -0.7320709 -100.51111 15.787117c-17.427235 16.519188 2.8374023 55.113365 -4.052311 83.328c-6.8897133 28.214634 -36.880627 61.487507 -37.28597 85.95979c-0.4053433 24.472275 19.18307 56.72209 34.85391 60.8739z" fill-rule="evenodd"/></g></svg>