<svg version="1.1" viewBox="0.0 0.0 616.0 500.0" fill="none" stroke="none" stroke-linecap="square" stroke-miterlimit="10" xmlns:xlink="http://www.w3.org/1999/xlink" xmlns="http://www.w3.org/2000/svg"><clipPath id="p.0"><path d="m0 0l616.0 0l0 500.0l-616.0 0l0 -500.0z" clip-rule="nonzero"/></clipPath><g clip-path="url(#p.0)"><path fill="#434343" d="m0 0l616.0 0l0 500.0l-616.0 0z" fill-rule="evenodd"/><path fill="#f3f3f3" d="m17.782152 26.498777l0 0c0 -2.5020008 2.0282726 -4.5302734 4.5302734 -4.5302734l18.120554 0l0 0c1.2015038 0 2.353798 0.47729492 3.2033882 1.3268871c0.8495903 0.8495903 1.3268852 2.0018845 1.3268852 3.2033863l0 159.34889c0 2.5020142 -2.0282707 4.5302887 -4.5302734 4.5302887l-18.120554 0c-2.5020008 0 -4.5302734 -2.0282745 -4.5302734 -4.5302887z" fill-rule="evenodd"/><path fill="#f3f3f3" d="m574.57745 317.60376l0 0c0 -2.5019836 2.0282593 -4.5302734 4.5302734 -4.5302734l18.120544 0l0 0c1.201477 0 2.3537598 0.47729492 3.2033691 1.3269043c0.8496094 0.84957886 1.3269043 2.0018616 1.3269043 3.2033691l0 159.3489c0 2.5020142 -2.0282593 4.5302734 -4.5302734 4.5302734l-18.120544 0c-2.5020142 0 -4.5302734 -2.0282593 -4.5302734 -4.5302734z" fill-rule="evenodd"/><path fill="#ffd966" d="m208.15749 197.17323l0 0c0 -15.307419 12.409103 -27.716537 27.716522 -27.716537l0 0c7.350891 0 14.400696 2.9201202 19.598557 8.117981c5.1978455 5.1978607 8.117981 12.247665 8.117981 19.598557l0 0c0 15.307419 -12.409103 27.716537 -27.716537 27.716537l0 0c-15.307419 0 -27.716522 -12.409119 -27.716522 -27.716537z" fill-rule="evenodd"/><path fill="#000000" d="m276.149 209.35199l0 0c1.0350037 -1.3828888 2.9961548 -1.6663513 4.380371 -0.6331482l58.703827 43.81749c0.6647339 0.4961548 1.1047974 1.2358093 1.2233887 2.0562286c0.11859131 0.8204193 -0.09402466 1.654419 -0.59103394 2.3184814l0 0l0 0c-1.0350037 1.382904 -2.9961548 1.6663818 -4.380371 0.6331482l-58.703827 -43.817474c-1.3842163 -1.0332031 -1.6673279 -2.9918365 -0.63235474 -4.3747253z" fill-rule="evenodd"/><path fill="#000000" d="m265.46573 226.22124l0 0c1.0350037 -1.3828888 2.9961548 -1.6663666 4.380371 -0.63316345l58.703827 43.817505c0.6647339 0.4961548 1.1047974 1.2358093 1.2233887 2.0562134c0.11859131 0.8204346 -0.09402466 1.654419 -0.59103394 2.3184814l0 0l0 0c-1.0350037 1.382904 -2.9961548 1.6663818 -4.380371 0.6331787l-58.703827 -43.817505c-1.3842163 -1.0332031 -1.6673279 -2.9918365 -0.63235474 -4.37471z" fill-rule="evenodd"/><path fill="#000000" d="m246.69586 235.94508l0 0c1.0349884 -1.3828888 2.9961548 -1.6663666 4.380371 -0.63316345l58.703827 43.817505c0.6647339 0.4961548 1.1047974 1.2358093 1.2233582 2.0562134c0.11859131 0.8204346 -0.09399414 1.654419 -0.59103394 2.318512l0 0l0 0c-1.0349731 1.3828735 -2.9961243 1.6663513 -4.380371 0.6331482l-58.70381 -43.817505c-1.3842163 -1.0332031 -1.6673279 -2.9918213 -0.6323395 -4.37471z" fill-rule="evenodd"/></g></svg>